<svg version="1.1" id="Layer_1" xmlns="http://www.w3.org/2000/svg" xmlns:xlink="http://www.w3.org/1999/xlink" x="0px" y="0px"
	 width="100%" viewBox="0 0 512 512" enable-background="new 0 0 512 512" xml:space="preserve">
<path fill="#00000000" opacity="1.000000" stroke="none" 
	d="
M289.000000,1.000001 
	C363.616272,1.000000 438.232544,1.000000 513.000000,1.000000 
	C513.000000,141.354736 513.000000,281.709503 512.694336,422.829346 
	C512.015442,423.265289 511.467102,423.009460 511.294189,422.596466 
	C505.843567,409.578522 496.325928,402.743958 481.969421,402.972076 
	C474.983582,403.083069 467.992981,402.898499 461.002472,402.392029 
	C461.000122,382.827606 461.023254,363.718781 460.984955,344.610138 
	C460.973816,339.045898 459.866486,337.990204 454.384674,338.007965 
	C448.239960,338.027893 442.095490,338.108795 435.490479,338.089539 
	C426.736450,338.009613 418.432098,337.779480 410.157593,338.174072 
	C408.366699,338.259491 406.682953,340.590790 404.579224,342.124329 
	C404.138641,362.519867 404.068665,382.678741 403.534302,402.903961 
	C383.716492,402.931305 364.363098,402.892303 345.005371,402.397186 
	C345.000671,382.487030 344.947205,363.032745 345.043518,343.579193 
	C345.063354,339.566864 343.499237,337.845673 339.460388,337.964233 
	C332.983307,338.154419 326.499390,338.112793 319.554016,338.093262 
	C311.273865,338.010864 303.458069,337.996399 295.642303,338.000366 
	C289.539032,338.003479 289.001617,338.517975 288.997864,344.462463 
	C288.985596,363.918884 288.988220,383.375336 288.662720,402.902924 
	C287.904266,403.029358 287.468170,403.084656 286.564880,403.078247 
	C275.098083,402.986023 264.098480,402.955536 252.971100,402.613892 
	C246.338440,394.972626 238.666473,389.445038 229.034302,386.442444 
	C228.673508,371.037628 228.339203,356.094330 228.415985,341.084839 
	C238.487289,340.615051 246.995132,331.882202 246.998062,322.344971 
	C247.004288,302.085541 247.015518,281.826111 246.969910,261.566772 
	C246.966324,259.973145 246.742142,258.317108 246.272614,256.797577 
	C242.999939,246.205963 236.824158,242.281174 223.039780,241.453735 
	C222.618896,227.160599 222.228485,213.329651 222.124115,199.268188 
	C228.803650,192.333511 235.221664,185.652557 241.581223,178.916428 
	C245.311554,174.965225 248.978943,170.953369 252.621964,166.921219 
	C260.761810,157.911957 268.868652,148.872894 277.298676,140.014481 
	C277.773285,140.646088 277.836212,141.185562 278.117706,141.561249 
	C290.225128,157.719620 302.292877,173.908310 314.498810,189.992081 
	C321.727753,199.517654 328.382477,210.125473 342.992767,208.598465 
	C343.289185,211.970261 343.206329,215.001236 343.936371,217.821793 
	C348.773895,236.512634 364.540771,243.213333 381.614594,240.665985 
	C386.686218,239.909332 391.246490,235.725082 396.337830,232.982559 
	C404.469574,236.273865 412.304565,239.694000 419.065002,242.645081 
	C419.065002,249.828247 418.114868,255.949051 419.227905,261.668335 
	C424.298584,287.724121 447.944519,301.030701 472.769806,294.612091 
	C477.940033,293.275330 480.909821,288.946289 479.899841,284.881836 
	C478.627930,279.763153 474.003021,277.149445 468.414551,278.839844 
	C460.010284,281.381989 452.260071,279.786133 445.557037,274.678375 
	C435.850586,267.282013 431.447815,255.455582 437.442291,243.484390 
	C443.962158,230.463882 454.922485,226.852829 467.439301,229.856461 
	C476.620972,232.059769 481.874817,238.385742 485.401123,246.727448 
	C487.067230,250.668747 492.412720,252.402405 496.380127,250.792770 
	C499.514618,249.521072 502.140228,244.040390 500.774933,240.616119 
	C493.972992,223.556290 482.205475,213.563766 463.055969,212.149017 
	C450.313507,211.207596 439.140686,215.736603 430.163452,225.211746 
	C428.988403,226.451965 426.462128,227.960190 425.377716,227.484421 
	C418.791992,224.594955 412.442871,221.166245 406.997986,218.414520 
	C406.997986,213.301041 407.355591,209.171722 406.929779,205.124847 
	C405.733307,193.754196 397.184570,181.545029 384.985046,178.389786 
	C385.450592,173.587860 387.509552,168.495316 386.004822,164.890213 
	C382.183319,155.734482 377.133484,147.018707 371.913910,138.533752 
	C359.434357,118.247047 346.573853,98.194679 333.943359,77.660118 
	C334.476746,75.902969 334.812317,74.477684 335.410278,73.172615 
	C340.432831,62.211136 338.935303,48.460571 330.643738,39.355019 
	C321.916870,29.771429 312.289337,21.007998 302.925995,11.570827 
	C298.481812,8.476366 294.146240,5.728226 289.880249,2.876073 
	C289.388519,2.547317 289.284027,1.639399 289.000000,1.000001 
z"/>
<path fill="#00000000" opacity="1.000000" stroke="none" 
	d="
M0.999997,416.000000 
	C1.000000,277.754883 1.000000,139.509766 1.000000,1.000000 
	C89.355171,1.000000 177.710602,1.000000 266.863647,1.272722 
	C261.450104,6.169738 254.837982,10.348375 249.105881,15.505204 
	C234.267532,28.854401 219.820953,42.638927 205.210403,56.241539 
	C195.794205,65.008156 186.335068,73.728867 176.948532,82.527077 
	C165.022827,93.705299 153.151154,104.941162 140.783188,116.085907 
	C136.879379,116.069046 133.448532,116.118454 129.554016,116.087265 
	C115.269493,116.669624 101.111008,115.662231 87.703949,118.372284 
	C65.510094,122.858498 50.039074,137.048187 44.282055,159.158600 
	C41.104229,171.363358 40.835175,184.420441 40.102333,197.142120 
	C39.245445,212.017212 39.311584,226.945465 38.545242,241.909363 
	C25.775339,242.032333 17.153526,249.743439 16.586735,261.118469 
	C16.144617,281.275909 16.067671,301.200653 16.049528,321.125397 
	C16.048912,321.801483 16.639896,322.478088 16.972889,323.555054 
	C16.618895,331.530182 25.353556,340.962799 34.802132,341.535522 
	C34.393326,342.662628 34.029533,343.424377 34.009201,344.195160 
	C33.634083,358.417877 33.299992,372.641663 32.579399,386.919708 
	C17.941612,391.691833 7.665205,400.540222 2.854358,415.131653 
	C2.707683,415.576538 1.638887,415.717377 0.999997,416.000000 
z"/>
<path fill="#FCC203" opacity="1.000000" stroke="none" 
	d="
M229.060791,386.903961 
	C238.666473,389.445038 246.338440,394.972626 252.905518,402.971008 
	C259.133057,412.946777 261.360565,423.170380 261.141846,434.307770 
	C260.783783,452.541534 261.018890,470.787537 261.087769,489.028076 
	C261.094238,490.741730 261.698975,492.453186 262.015381,494.610168 
	C261.668335,498.766144 261.735535,502.576843 260.855621,506.154663 
	C260.253174,508.604370 258.331787,510.729675 257.000000,513.000000 
	C186.312439,513.000000 115.624878,513.000000 44.241245,512.755920 
	C38.564671,509.371368 36.817307,504.980957 36.887371,499.016571 
	C37.163353,475.525085 36.898048,452.027771 37.046677,428.533966 
	C37.117008,417.416412 41.329159,407.815918 48.851784,399.635406 
	C55.927261,391.941162 64.950378,388.097504 75.463654,386.164429 
	C126.973717,386.371979 178.017258,386.637970 229.060791,386.903961 
M127.876762,474.156799 
	C127.876762,465.876740 127.876762,457.596649 127.876762,449.352448 
	C133.002502,448.813141 136.698135,447.197174 137.146530,442.037109 
	C137.702118,435.643402 133.011246,434.097717 127.872345,433.001251 
	C127.872345,429.810303 127.943199,426.823914 127.857170,423.842041 
	C127.692169,418.122864 124.779373,414.861786 119.985779,414.895691 
	C115.248253,414.929199 112.417801,418.195007 112.243477,423.982819 
	C112.150429,427.072144 112.226967,430.166565 112.226967,433.402588 
	C106.907784,433.828094 103.290131,435.590149 102.929092,440.725006 
	C102.485588,447.032593 107.164673,448.591003 112.220993,449.651062 
	C112.220993,458.080963 112.177986,466.224304 112.234825,474.366913 
	C112.279007,480.696106 114.869286,484.032593 119.704437,484.217865 
	C124.615631,484.406097 127.271820,481.430054 127.876762,474.156799 
M216.317673,425.907104 
	C214.615311,425.404510 212.912949,424.901917 211.307907,424.428070 
	C210.513535,417.801727 208.254913,415.052521 203.656982,414.904236 
	C198.926788,414.751740 196.784927,417.197357 195.175919,424.709503 
	C190.612518,425.218414 186.576889,426.879761 186.193466,432.173523 
	C185.738022,438.461456 190.610794,440.009216 195.762695,441.231110 
	C195.762695,443.216461 195.761444,445.027557 195.762894,446.838654 
	C195.770737,456.655334 195.659302,466.474182 195.833374,476.287903 
	C195.934860,482.010651 200.371277,485.441254 205.483902,483.946045 
	C209.573853,482.749939 211.097733,479.676331 211.079514,475.556793 
	C211.028870,464.111420 211.061951,452.665649 211.061951,441.383667 
	C221.598145,437.811005 223.515076,432.581085 216.317673,425.907104 
M146.102142,465.465881 
	C148.504700,466.781769 150.907242,468.097626 154.077942,469.834229 
	C154.077942,471.823456 153.845230,474.638580 154.131958,477.399780 
	C154.572601,481.643341 157.840240,484.382416 161.952469,484.186493 
	C166.228836,483.982788 168.657593,481.630585 169.230377,477.410950 
	C169.386215,476.262878 169.455444,475.076050 169.355072,473.925262 
	C169.065079,470.600555 169.627228,468.610352 173.684219,467.658905 
	C175.828430,467.156036 178.592224,463.522766 178.613556,461.279327 
	C178.637360,458.775421 176.122208,456.023010 174.201569,453.824860 
	C173.314972,452.810211 171.214691,452.856049 169.379150,452.340912 
	C169.379150,444.245209 169.381226,436.269928 169.377594,428.294678 
	C169.376755,426.463959 169.446136,424.627380 169.327621,422.803619 
	C168.999176,417.748535 166.067871,414.810059 161.552307,414.897858 
	C157.151001,414.983490 154.103104,418.117157 154.041168,423.115662 
	C153.919754,432.912018 154.005478,442.710938 154.005478,452.408325 
	C145.230072,454.424500 143.107132,457.732880 146.102142,465.465881 
M46.166210,471.441406 
	C55.692383,477.616882 65.880081,475.778107 71.248878,466.914215 
	C76.134399,458.848175 73.387688,448.308899 65.170258,443.590088 
	C57.774246,439.343048 48.549183,441.206726 43.302853,448.007904 
	C37.996906,454.886322 38.890709,463.806152 46.166210,471.441406 
z"/>
<path fill="#8E8391" opacity="1.000000" stroke="none" 
	d="
M345.009674,402.853333 
	C364.363098,402.892303 383.716492,402.931305 403.787750,402.942596 
	C404.675537,402.896667 404.845520,402.878418 405.478088,402.933838 
	C414.928955,402.958130 423.917175,402.908813 433.379639,402.916992 
	C442.904083,402.932220 451.954315,402.889984 461.004547,402.847717 
	C467.992981,402.898499 474.983582,403.083069 481.969421,402.972076 
	C496.325928,402.743958 505.843567,409.578522 511.294189,422.596466 
	C511.467102,423.009460 512.015442,423.265289 512.694336,423.297180 
	C513.000000,439.687561 513.000000,456.375122 512.721130,473.216248 
	C511.863922,474.138702 511.130890,474.834869 510.730530,475.687317 
	C504.581055,488.781158 493.994568,494.102875 479.875275,494.048737 
	C442.406128,493.904999 404.936096,494.017639 367.466400,493.993652 
	C343.321869,493.978180 319.177429,493.901459 295.023621,493.393158 
	C295.010437,475.787140 294.656982,458.630829 295.114105,441.496155 
	C295.475372,427.954651 294.531403,414.917999 287.032104,403.139923 
	C287.468170,403.084656 287.904266,403.029358 289.125977,402.982666 
	C298.935974,402.952087 307.960266,402.912933 317.451416,402.926849 
	C326.948700,402.937714 335.979187,402.895508 345.009674,402.853333 
M439.912018,465.845825 
	C452.784821,468.488312 463.649475,459.122162 461.497406,447.237579 
	C459.992615,438.927521 453.372925,433.070404 445.314819,432.919250 
	C436.821381,432.759918 429.850708,438.115906 428.209473,446.062256 
	C426.457367,454.545654 430.528625,461.812653 439.912018,465.845825 
M326.023285,436.406494 
	C324.982635,437.482086 323.825989,438.468750 322.921478,439.648712 
	C318.963989,444.811401 318.634155,452.792572 322.056854,458.500519 
	C325.447021,464.154144 332.452087,467.571838 338.613708,466.495239 
	C345.832123,465.233978 350.812408,461.244446 352.741119,454.074402 
	C354.639160,447.018311 352.135956,439.991425 346.242523,435.961029 
	C339.796478,431.552673 333.158875,431.694763 326.023285,436.406494 
z"/>
<path fill="#00000000" opacity="1.000000" stroke="none" 
	d="
M295.032928,493.852173 
	C319.177429,493.901459 343.321869,493.978180 367.466400,493.993652 
	C404.936096,494.017639 442.406128,493.904999 479.875275,494.048737 
	C493.994568,494.102875 504.581055,488.781158 510.730530,475.687317 
	C511.130890,474.834869 511.863922,474.138702 512.721130,473.684937 
	C513.000000,486.980682 513.000000,499.961395 513.000000,513.000000 
	C427.979126,513.000000 342.958221,513.000000 257.468658,513.000000 
	C258.331787,510.729675 260.253174,508.604370 260.855621,506.154663 
	C261.735535,502.576843 261.668335,498.766144 262.480103,494.556335 
	C273.647888,493.989380 284.340393,493.920776 295.032928,493.852173 
z"/>
<path fill="#F0A70A" opacity="1.000000" stroke="none" 
	d="
M74.997116,386.222839 
	C64.950378,388.097504 55.927261,391.941162 48.851784,399.635406 
	C41.329159,407.815918 37.117008,417.416412 37.046677,428.533966 
	C36.898048,452.027771 37.163353,475.525085 36.887371,499.016571 
	C36.817307,504.980957 38.564671,509.371368 43.772587,512.755920 
	C29.711601,513.000000 15.423201,513.000000 1.000000,513.000000 
	C1.000000,480.979218 1.000000,448.958282 0.999997,416.468658 
	C1.638887,415.717377 2.707683,415.576538 2.854358,415.131653 
	C7.665205,400.540222 17.941612,391.691833 33.003582,386.993286 
	C37.918453,386.675476 42.026382,386.150085 46.145226,386.042450 
	C53.766068,385.843262 61.393299,385.888611 69.442398,385.894348 
	C71.576996,386.045349 73.287056,386.134094 74.997116,386.222839 
z"/>
<path fill="#F0A80A" opacity="1.000000" stroke="none" 
	d="
M141.256165,116.152176 
	C153.151154,104.941162 165.022827,93.705299 176.948532,82.527077 
	C186.335068,73.728867 195.794205,65.008156 205.210403,56.241539 
	C219.820953,42.638927 234.267532,28.854401 249.105881,15.505204 
	C254.837982,10.348375 261.450104,6.169738 267.330627,1.272722 
	C274.020966,1.000000 281.041901,1.000000 288.531433,1.000001 
	C289.284027,1.639399 289.388519,2.547317 289.880249,2.876073 
	C294.146240,5.728226 298.481812,8.476366 302.614655,11.810740 
	C293.687622,13.211916 286.199707,16.811378 279.798584,22.751757 
	C274.564301,27.609293 269.346588,32.484928 264.146790,37.379372 
	C246.610123,53.886215 229.120148,70.442879 211.535538,86.898453 
	C205.478653,92.566467 199.059662,97.850281 193.058746,103.574486 
	C187.818573,108.573029 182.933411,113.943748 177.482910,119.132507 
	C167.718994,118.371315 158.362900,117.635780 149.008560,116.878746 
	C146.421768,116.669403 143.840164,116.396126 141.256165,116.152176 
z"/>
<path fill="#FDC203" opacity="1.000000" stroke="none" 
	d="
M223.070236,241.915924 
	C236.824158,242.281174 242.999939,246.205963 246.272614,256.797577 
	C246.742142,258.317108 246.966324,259.973145 246.969910,261.566772 
	C247.015518,281.826111 247.004288,302.085541 246.998062,322.344971 
	C246.995132,331.882202 238.487289,340.615051 227.951645,341.017151 
	C193.169510,340.999969 159.262756,340.962311 125.356049,340.977509 
	C107.242363,340.985626 89.128716,341.084900 70.685486,341.071930 
	C69.911087,340.940338 69.466270,340.879822 68.738327,340.630493 
	C65.744667,338.909698 62.800365,337.678802 60.367176,335.789642 
	C52.911320,330.000763 52.528900,321.732574 53.478264,313.251831 
	C64.973030,313.166443 76.000114,313.087433 87.485580,313.094940 
	C92.423744,313.161316 96.904213,313.083344 101.383087,313.137482 
	C105.731285,313.190033 107.844711,311.052979 107.856285,306.790161 
	C107.881516,297.497894 107.853386,288.205444 107.868271,278.913116 
	C107.875137,274.627197 105.780556,272.454987 101.485931,272.433167 
	C96.675835,272.408722 91.865692,272.391205 86.592697,272.273132 
	C75.081802,272.113403 64.033798,272.051178 52.988632,271.524750 
	C53.142231,266.798523 52.759987,262.434113 53.555355,258.296021 
	C55.180775,249.839493 61.460396,245.428024 69.372391,242.354141 
	C71.536339,242.249420 73.268417,242.182861 75.461731,242.209259 
	C123.828026,242.325562 171.733093,242.352081 219.638153,242.353119 
	C220.782181,242.353134 221.926208,242.068039 223.070236,241.915924 
M169.852951,281.511108 
	C173.054367,285.215973 177.221100,285.137299 181.337189,283.995880 
	C186.984146,282.429871 188.535233,275.188263 184.280182,271.178619 
	C181.487244,268.546753 174.917282,268.010223 171.649109,270.396912 
	C167.877502,273.151306 167.092209,276.744385 169.852951,281.511108 
M154.371628,279.589569 
	C155.836441,275.547241 154.557709,272.372589 151.074783,270.147430 
	C147.758728,268.028839 141.556412,268.664795 138.875381,271.165070 
	C134.787430,274.977417 136.072968,281.862366 141.254257,283.905548 
	C145.879120,285.729309 150.698257,284.367706 154.371628,279.589569 
M217.482880,273.027283 
	C214.540298,268.382263 209.880005,268.081879 205.595703,269.600525 
	C203.287827,270.418610 200.633804,273.504211 200.339111,275.844177 
	C200.045013,278.179443 201.997513,282.454865 203.862366,283.045197 
	C207.299179,284.133148 211.733124,284.050629 215.120529,282.777222 
	C218.750778,281.412567 218.982895,277.361786 217.482880,273.027283 
M186.291580,304.297729 
	C183.379517,299.045776 177.583801,297.166595 172.414139,299.798157 
	C167.333176,302.384552 166.286697,309.845551 171.244537,312.414215 
	C174.359940,314.028381 178.958771,314.000061 182.530014,313.163300 
	C185.960236,312.359589 187.186920,308.745026 186.291580,304.297729 
M151.901520,312.732788 
	C155.749710,308.251068 155.937485,304.194244 152.445343,300.983307 
	C148.989685,297.805908 141.321091,298.120483 138.313538,301.563049 
	C134.480804,305.950165 136.734879,313.130707 142.487900,313.944031 
	C145.302841,314.341980 148.297882,313.466034 151.901520,312.732788 
M211.983734,299.042236 
	C210.166382,299.037537 208.039642,298.428955 206.602066,299.165527 
	C204.273849,300.358398 201.486420,302.065063 200.602402,304.247345 
	C199.809280,306.205200 200.626785,309.583557 201.957184,311.474548 
	C204.771225,315.474335 209.496902,314.954071 213.292755,313.596741 
	C215.411530,312.839081 217.508530,309.861603 218.110168,307.500916 
	C219.141296,303.454926 216.681488,300.624969 211.983734,299.042236 
z"/>
<path fill="#B3ADB6" opacity="1.000000" stroke="none" 
	d="
M223.039780,241.453735 
	C221.926208,242.068039 220.782181,242.353134 219.638153,242.353119 
	C171.733093,242.352081 123.828026,242.325562 75.462082,241.747223 
	C76.000053,219.466141 77.459839,197.749069 77.882744,176.011795 
	C78.429268,147.920242 98.781052,123.082100 126.298370,117.992249 
	C127.605896,117.750389 128.780945,116.792358 130.017700,116.167862 
	C133.448532,116.118454 136.879379,116.069046 140.783203,116.085907 
	C143.840164,116.396126 146.421768,116.669403 149.008560,116.878746 
	C158.362900,117.635780 167.718994,118.371315 177.760849,119.360573 
	C204.355576,128.952362 218.804733,148.573898 220.262985,176.245789 
	C220.671768,184.002884 221.306793,191.748077 221.838043,199.498718 
	C222.228485,213.329651 222.618896,227.160599 223.039780,241.453735 
M151.686920,186.930084 
	C156.574860,175.336197 153.888000,164.125305 144.637039,157.514618 
	C135.764145,151.174088 123.494408,151.722534 115.606102,159.025848 
	C108.481216,165.622345 106.131058,173.850540 108.928970,183.096375 
	C111.867622,192.807266 118.769806,198.431519 128.869873,199.393356 
	C138.735367,200.332886 146.257782,196.144897 151.686920,186.930084 
z"/>
<path fill="#FDC202" opacity="1.000000" stroke="none" 
	d="
M222.124115,199.268188 
	C221.306793,191.748077 220.671768,184.002884 220.262985,176.245789 
	C218.804733,148.573898 204.355576,128.952362 178.169342,119.378113 
	C182.933411,113.943748 187.818573,108.573029 193.058746,103.574486 
	C199.059662,97.850281 205.478653,92.566467 211.535538,86.898453 
	C229.120148,70.442879 246.610123,53.886215 264.146790,37.379372 
	C269.346588,32.484928 274.564301,27.609293 279.798584,22.751757 
	C286.199707,16.811378 293.687622,13.211916 302.743988,12.126112 
	C312.289337,21.007998 321.916870,29.771429 330.643738,39.355019 
	C338.935303,48.460571 340.432831,62.211136 335.410278,73.172615 
	C334.812317,74.477684 334.476746,75.902969 333.615479,77.723030 
	C329.864960,81.557930 326.422119,84.853104 323.190369,88.343712 
	C314.080231,98.183548 305.056854,108.103699 295.814850,118.268448 
	C294.152191,120.124580 292.620667,121.658302 291.205414,123.292717 
	C286.444244,128.791138 281.724518,134.325424 276.988922,139.845978 
	C268.868652,148.872894 260.761810,157.911957 252.621964,166.921219 
	C248.978943,170.953369 245.311554,174.965225 241.581223,178.916428 
	C235.221664,185.652557 228.803650,192.333511 222.124115,199.268188 
M261.030273,66.227737 
	C262.960297,71.831490 266.699890,75.601921 272.490143,77.012825 
	C279.465118,78.712395 286.431427,75.512726 289.869324,69.262947 
	C293.221802,63.168430 292.213684,55.821270 287.339539,50.826157 
	C282.567230,45.935417 275.509918,44.664562 269.421722,47.599575 
	C262.642120,50.867901 259.507172,57.417149 261.030273,66.227737 
z"/>
<path fill="#B3ADB6" opacity="1.000000" stroke="none" 
	d="
M71.015053,341.143005 
	C89.128716,341.084900 107.242363,340.985626 125.356049,340.977509 
	C159.262756,340.962311 193.169510,340.999969 227.540558,341.083313 
	C228.339203,356.094330 228.673508,371.037628 229.034302,386.442444 
	C178.017258,386.637970 126.973717,386.371979 75.463654,386.164429 
	C73.287056,386.134094 71.576996,386.045349 69.442566,385.473328 
	C69.683815,370.374359 70.349434,355.758698 71.015053,341.143005 
z"/>
<path fill="#F0A70A" opacity="1.000000" stroke="none" 
	d="
M295.999268,117.992188 
	C305.056854,108.103699 314.080231,98.183548 323.190369,88.343712 
	C326.422119,84.853104 329.864960,81.557930 333.539307,78.110619 
	C346.573853,98.194679 359.434357,118.247047 371.913910,138.533752 
	C377.133484,147.018707 382.183319,155.734482 386.004822,164.890213 
	C387.509552,168.495316 385.450592,173.587860 384.691406,178.572662 
	C379.946899,183.424179 375.525391,187.706116 370.918457,192.095367 
	C370.733063,192.202698 370.625031,192.617279 370.609833,192.591446 
	C370.594635,192.565613 370.536926,192.581970 370.218384,192.643677 
	C366.584015,194.823074 363.268158,196.940781 359.618225,198.977020 
	C358.191223,197.925934 356.895538,197.108719 356.035217,195.964233 
	C337.856323,171.780975 319.750610,147.542633 301.543396,123.380768 
	C300.010803,121.346886 297.861847,119.777420 295.999268,117.992188 
z"/>
<path fill="#766D78" opacity="1.000000" stroke="none" 
	d="
M371.103851,191.988037 
	C375.525391,187.706116 379.946899,183.424179 384.662048,178.959381 
	C397.184570,181.545029 405.733307,193.754196 406.929779,205.124847 
	C407.355591,209.171722 406.997986,213.301041 406.997986,218.414520 
	C412.442871,221.166245 418.791992,224.594955 425.377716,227.484421 
	C426.462128,227.960190 428.988403,226.451965 430.163452,225.211746 
	C439.140686,215.736603 450.313507,211.207596 463.055969,212.149017 
	C482.205475,213.563766 493.972992,223.556290 500.774933,240.616119 
	C502.140228,244.040390 499.514618,249.521072 496.380127,250.792770 
	C492.412720,252.402405 487.067230,250.668747 485.401123,246.727448 
	C481.874817,238.385742 476.620972,232.059769 467.439301,229.856461 
	C454.922485,226.852829 443.962158,230.463882 437.442291,243.484390 
	C431.447815,255.455582 435.850586,267.282013 445.557037,274.678375 
	C452.260071,279.786133 460.010284,281.381989 468.414551,278.839844 
	C474.003021,277.149445 478.627930,279.763153 479.899841,284.881836 
	C480.909821,288.946289 477.940033,293.275330 472.769806,294.612091 
	C447.944519,301.030701 424.298584,287.724121 419.227905,261.668335 
	C418.114868,255.949051 419.065002,249.828247 419.065002,242.645081 
	C412.304565,239.694000 404.469574,236.273865 396.075623,232.738190 
	C393.976013,232.016190 392.425812,231.432724 390.896179,230.799561 
	C380.699127,226.578659 373.829376,219.232407 371.512268,208.426956 
	C370.415131,203.310852 370.815186,197.873672 370.536926,192.581970 
	C370.536926,192.581970 370.594635,192.565613 370.763306,192.628021 
	C370.932007,192.690430 371.217834,192.407974 371.217834,192.407974 
	C371.217834,192.407974 371.103851,191.988037 371.103851,191.988037 
z"/>
<path fill="#766D78" opacity="1.000000" stroke="none" 
	d="
M295.023621,493.393127 
	C284.340393,493.920776 273.647888,493.989380 262.490662,494.111816 
	C261.698975,492.453186 261.094238,490.741730 261.087769,489.028076 
	C261.018890,470.787537 260.783783,452.541534 261.141846,434.307770 
	C261.360565,423.170380 259.133057,412.946777 253.033295,403.282166 
	C264.098480,402.955536 275.098083,402.986023 286.564880,403.078247 
	C294.531403,414.917999 295.475372,427.954651 295.114105,441.496155 
	C294.656982,458.630829 295.010437,475.787140 295.023621,493.393127 
z"/>
<path fill="#E38803" opacity="1.000000" stroke="none" 
	d="
M295.814850,118.268448 
	C297.861847,119.777420 300.010803,121.346886 301.543396,123.380768 
	C319.750610,147.542633 337.856323,171.780975 356.035217,195.964233 
	C356.895538,197.108719 358.191223,197.925934 359.442291,199.251358 
	C354.063446,202.458206 348.526489,205.309250 342.989532,208.160309 
	C328.382477,210.125473 321.727753,199.517654 314.498810,189.992081 
	C302.292877,173.908310 290.225128,157.719620 278.117706,141.561249 
	C277.836212,141.185562 277.773285,140.646088 277.298676,140.014496 
	C281.724518,134.325424 286.444244,128.791138 291.205414,123.292717 
	C292.620667,121.658302 294.152191,120.124580 295.814850,118.268448 
z"/>
<path fill="#07A9F0" opacity="1.000000" stroke="none" 
	d="
M316.984589,402.873779 
	C307.960266,402.912933 298.935974,402.952087 289.448395,402.911499 
	C288.988220,383.375336 288.985596,363.918884 288.997864,344.462463 
	C289.001617,338.517975 289.539032,338.003479 295.642303,338.000366 
	C303.458069,337.996399 311.273865,338.010864 319.338928,338.378510 
	C318.726379,341.307190 317.147369,343.866425 317.117340,346.443695 
	C316.898376,365.251678 316.990631,384.063293 316.984589,402.873779 
z"/>
<path fill="#08A9F0" opacity="1.000000" stroke="none" 
	d="
M432.905396,402.859497 
	C423.917175,402.908813 414.928955,402.958130 405.473999,402.474976 
	C404.988129,381.924225 404.968994,361.905914 404.949860,341.887634 
	C406.682953,340.590790 408.366699,338.259491 410.157593,338.174072 
	C418.432098,337.779480 426.736450,338.009613 435.228149,338.333801 
	C434.601227,341.004242 433.086365,343.349152 433.060364,345.710449 
	C432.850494,364.758392 432.920715,383.809418 432.905396,402.859497 
z"/>
<path fill="#40C1FA" opacity="1.000000" stroke="none" 
	d="
M433.379639,402.916992 
	C432.920715,383.809418 432.850494,364.758392 433.060364,345.710449 
	C433.086365,343.349152 434.601227,341.004242 435.688538,338.407471 
	C442.095490,338.108795 448.239960,338.027893 454.384674,338.007965 
	C459.866486,337.990204 460.973816,339.045898 460.984955,344.610138 
	C461.023254,363.718781 461.000122,382.827606 461.002472,402.392029 
	C451.954315,402.889984 442.904083,402.932220 433.379639,402.916992 
z"/>
<path fill="#40C1FA" opacity="1.000000" stroke="none" 
	d="
M317.451416,402.926819 
	C316.990631,384.063293 316.898376,365.251678 317.117340,346.443695 
	C317.147369,343.866425 318.726379,341.307190 319.803314,338.454346 
	C326.499390,338.112793 332.983307,338.154419 339.460388,337.964233 
	C343.499237,337.845673 345.063354,339.566864 345.043518,343.579193 
	C344.947205,363.032745 345.000671,382.487030 345.005371,402.397217 
	C335.979187,402.895508 326.948700,402.937714 317.451416,402.926819 
z"/>
<path fill="#665F67" opacity="1.000000" stroke="none" 
	d="
M342.992767,208.598450 
	C348.526489,205.309250 354.063446,202.458206 359.776367,199.332825 
	C363.268158,196.940781 366.584015,194.823074 370.218384,192.643677 
	C370.815186,197.873672 370.415131,203.310852 371.512268,208.426956 
	C373.829376,219.232407 380.699127,226.578659 390.896179,230.799561 
	C392.425812,231.432724 393.976013,232.016190 395.778870,232.867035 
	C391.246490,235.725082 386.686218,239.909332 381.614594,240.665985 
	C364.540771,243.213333 348.773895,236.512634 343.936371,217.821793 
	C343.206329,215.001236 343.289185,211.970261 342.992767,208.598450 
z"/>
<path fill="#20B2F1" opacity="1.000000" stroke="none" 
	d="
M404.579224,342.124329 
	C404.968994,361.905914 404.988129,381.924225 405.011383,402.401367 
	C404.845520,402.878418 404.675537,402.896667 404.252136,402.876251 
	C404.068665,382.678741 404.138641,362.519867 404.579224,342.124329 
z"/>
<path fill="#A49CA7" opacity="1.000000" stroke="none" 
	d="
M129.554016,116.087265 
	C128.780945,116.792358 127.605896,117.750389 126.298370,117.992249 
	C98.781052,123.082100 78.429268,147.920242 77.882744,176.011795 
	C77.459839,197.749069 76.000053,219.466141 75.000854,241.654236 
	C73.268417,242.182861 71.536339,242.249420 68.917686,242.252319 
	C58.346504,242.075974 48.661896,241.963318 38.977287,241.850662 
	C39.311584,226.945465 39.245445,212.017212 40.102333,197.142120 
	C40.835175,184.420441 41.104229,171.363358 44.282055,159.158600 
	C50.039074,137.048187 65.510094,122.858498 87.703949,118.372284 
	C101.111008,115.662231 115.269493,116.669624 129.554016,116.087265 
z"/>
<path fill="#EFA80E" opacity="1.000000" stroke="none" 
	d="
M38.545242,241.909363 
	C48.661896,241.963318 58.346504,242.075974 68.485817,242.290466 
	C61.460396,245.428024 55.180775,249.839493 53.555355,258.296021 
	C52.759987,262.434113 53.142231,266.798523 52.695663,271.741394 
	C51.174931,274.575104 48.986107,276.686951 48.892700,278.887787 
	C48.497757,288.193481 48.737640,297.525635 48.720646,306.848083 
	C48.714954,309.969604 49.664566,312.403320 53.010578,313.258209 
	C52.528900,321.732574 52.911320,330.000763 60.367176,335.789642 
	C62.800365,337.678802 65.744667,338.909698 68.272812,340.701050 
	C57.062618,341.031769 46.034821,341.103088 35.007023,341.174408 
	C25.353556,340.962799 16.618895,331.530182 16.989967,323.076538 
	C16.979942,301.760193 16.970602,281.322968 16.961262,260.885712 
	C17.153526,249.743439 25.775339,242.032333 38.545242,241.909363 
z"/>
<path fill="#A49CA7" opacity="1.000000" stroke="none" 
	d="
M34.802132,341.535522 
	C46.034821,341.103088 57.062618,341.031769 68.555939,340.889893 
	C69.466270,340.879822 69.911087,340.940338 70.685486,341.071899 
	C70.349434,355.758698 69.683815,370.374359 69.018036,385.411072 
	C61.393299,385.888611 53.766068,385.843262 46.145226,386.042450 
	C42.026382,386.150085 37.918453,386.675476 33.381416,386.938782 
	C33.299992,372.641663 33.634083,358.417877 34.009201,344.195160 
	C34.029533,343.424377 34.393326,342.662628 34.802132,341.535522 
z"/>
<path fill="#F8B807" opacity="1.000000" stroke="none" 
	d="
M16.586735,261.118469 
	C16.970602,281.322968 16.979942,301.760193 16.972204,322.675964 
	C16.639896,322.478088 16.048912,321.801483 16.049528,321.125397 
	C16.067671,301.200653 16.144617,281.275909 16.586735,261.118469 
z"/>
<path fill="#696165" opacity="1.000000" stroke="none" 
	d="
M127.875488,474.610596 
	C127.271820,481.430054 124.615631,484.406097 119.704437,484.217865 
	C114.869286,484.032593 112.279007,480.696106 112.234825,474.366913 
	C112.177986,466.224304 112.220993,458.080963 112.220993,449.651062 
	C107.164673,448.591003 102.485588,447.032593 102.929092,440.725006 
	C103.290131,435.590149 106.907784,433.828094 112.226967,433.402588 
	C112.226967,430.166565 112.150429,427.072144 112.243477,423.982819 
	C112.417801,418.195007 115.248253,414.929199 119.985779,414.895691 
	C124.779373,414.861786 127.692169,418.122864 127.857170,423.842041 
	C127.943199,426.823914 127.872345,429.810303 127.872345,433.001251 
	C133.011246,434.097717 137.702118,435.643402 137.146530,442.037109 
	C136.698135,447.197174 133.002502,448.813141 127.876762,449.352448 
	C127.876762,457.596649 127.876762,465.876740 127.875488,474.610596 
z"/>
<path fill="#665F66" opacity="1.000000" stroke="none" 
	d="
M216.666260,426.080566 
	C223.515076,432.581085 221.598145,437.811005 211.061951,441.383667 
	C211.061951,452.665649 211.028870,464.111420 211.079514,475.556793 
	C211.097733,479.676331 209.573853,482.749939 205.483902,483.946045 
	C200.371277,485.441254 195.934860,482.010651 195.833374,476.287903 
	C195.659302,466.474182 195.770737,456.655334 195.762894,446.838654 
	C195.761444,445.027557 195.762695,443.216461 195.762695,441.231110 
	C190.610794,440.009216 185.738022,438.461456 186.193466,432.173523 
	C186.576889,426.879761 190.612518,425.218414 195.175919,424.709503 
	C196.784927,417.197357 198.926788,414.751740 203.656982,414.904236 
	C208.254913,415.052521 210.513535,417.801727 211.307907,424.428070 
	C212.912949,424.901917 214.615311,425.404510 216.666260,426.080566 
z"/>
<path fill="#665F66" opacity="1.000000" stroke="none" 
	d="
M145.889755,465.151001 
	C143.107132,457.732880 145.230072,454.424500 154.005478,452.408325 
	C154.005478,442.710938 153.919754,432.912018 154.041168,423.115662 
	C154.103104,418.117157 157.151001,414.983490 161.552307,414.897858 
	C166.067871,414.810059 168.999176,417.748535 169.327621,422.803619 
	C169.446136,424.627380 169.376755,426.463959 169.377594,428.294678 
	C169.381226,436.269928 169.379150,444.245209 169.379150,452.340912 
	C171.214691,452.856049 173.314972,452.810211 174.201569,453.824860 
	C176.122208,456.023010 178.637360,458.775421 178.613556,461.279327 
	C178.592224,463.522766 175.828430,467.156036 173.684219,467.658905 
	C169.627228,468.610352 169.065079,470.600555 169.355072,473.925262 
	C169.455444,475.076050 169.386215,476.262878 169.230377,477.410950 
	C168.657593,481.630585 166.228836,483.982788 161.952469,484.186493 
	C157.840240,484.382416 154.572601,481.643341 154.131958,477.399780 
	C153.845230,474.638580 154.077942,471.823456 154.077942,469.834229 
	C150.907242,468.097626 148.504700,466.781769 145.889755,465.151001 
z"/>
<path fill="#675F66" opacity="1.000000" stroke="none" 
	d="
M45.884506,471.200989 
	C38.890709,463.806152 37.996906,454.886322 43.302853,448.007904 
	C48.549183,441.206726 57.774246,439.343048 65.170258,443.590088 
	C73.387688,448.308899 76.134399,458.848175 71.248878,466.914215 
	C65.880081,475.778107 55.692383,477.616882 45.884506,471.200989 
z"/>
<path fill="#D7CDCB" opacity="1.000000" stroke="none" 
	d="
M439.538940,465.732300 
	C430.528625,461.812653 426.457367,454.545654 428.209473,446.062256 
	C429.850708,438.115906 436.821381,432.759918 445.314819,432.919250 
	C453.372925,433.070404 459.992615,438.927521 461.497406,447.237579 
	C463.649475,459.122162 452.784821,468.488312 439.538940,465.732300 
z"/>
<path fill="#D7CDCB" opacity="1.000000" stroke="none" 
	d="
M326.318848,436.180664 
	C333.158875,431.694763 339.796478,431.552673 346.242523,435.961029 
	C352.135956,439.991425 354.639160,447.018311 352.741119,454.074402 
	C350.812408,461.244446 345.832123,465.233978 338.613708,466.495239 
	C332.452087,467.571838 325.447021,464.154144 322.056854,458.500519 
	C318.634155,452.792572 318.963989,444.811401 322.921478,439.648712 
	C323.825989,438.468750 324.982635,437.482086 326.318848,436.180664 
z"/>
<path fill="#EBE0D8" opacity="1.000000" stroke="none" 
	d="
M53.478264,313.251831 
	C49.664566,312.403320 48.714954,309.969604 48.720646,306.848083 
	C48.737640,297.525635 48.497757,288.193481 48.892700,278.887787 
	C48.986107,276.686951 51.174931,274.575104 52.692818,272.205627 
	C64.033798,272.051178 75.081802,272.113403 86.484200,272.622375 
	C86.223625,275.253510 85.127441,277.427032 85.077965,279.624115 
	C84.876045,288.589813 84.865486,297.565857 85.087303,306.530640 
	C85.141106,308.704590 86.349640,310.849915 87.027199,313.008423 
	C76.000114,313.087433 64.973030,313.166443 53.478264,313.251831 
z"/>
<path fill="#FFF4F2" opacity="1.000000" stroke="none" 
	d="
M87.485580,313.094940 
	C86.349640,310.849915 85.141106,308.704590 85.087303,306.530640 
	C84.865486,297.565857 84.876045,288.589813 85.077965,279.624115 
	C85.127441,277.427032 86.223625,275.253510 86.947083,272.719910 
	C91.865692,272.391205 96.675835,272.408722 101.485931,272.433167 
	C105.780556,272.454987 107.875137,274.627197 107.868271,278.913116 
	C107.853386,288.205444 107.881516,297.497894 107.856285,306.790161 
	C107.844711,311.052979 105.731285,313.190033 101.383087,313.137482 
	C96.904213,313.083344 92.423744,313.161316 87.485580,313.094940 
z"/>
<path fill="#FFF3EB" opacity="1.000000" stroke="none" 
	d="
M169.616226,281.207886 
	C167.092209,276.744385 167.877502,273.151306 171.649109,270.396912 
	C174.917282,268.010223 181.487244,268.546753 184.280182,271.178619 
	C188.535233,275.188263 186.984146,282.429871 181.337189,283.995880 
	C177.221100,285.137299 173.054367,285.215973 169.616226,281.207886 
z"/>
<path fill="#FFF3ED" opacity="1.000000" stroke="none" 
	d="
M154.210785,279.939880 
	C150.698257,284.367706 145.879120,285.729309 141.254257,283.905548 
	C136.072968,281.862366 134.787430,274.977417 138.875381,271.165070 
	C141.556412,268.664795 147.758728,268.028839 151.074783,270.147430 
	C154.557709,272.372589 155.836441,275.547241 154.210785,279.939880 
z"/>
<path fill="#FFF3ED" opacity="1.000000" stroke="none" 
	d="
M217.662338,273.353485 
	C218.982895,277.361786 218.750778,281.412567 215.120529,282.777222 
	C211.733124,284.050629 207.299179,284.133148 203.862366,283.045197 
	C201.997513,282.454865 200.045013,278.179443 200.339111,275.844177 
	C200.633804,273.504211 203.287827,270.418610 205.595703,269.600525 
	C209.880005,268.081879 214.540298,268.382263 217.662338,273.353485 
z"/>
<path fill="#FFF3ED" opacity="1.000000" stroke="none" 
	d="
M186.415558,304.661255 
	C187.186920,308.745026 185.960236,312.359589 182.530014,313.163300 
	C178.958771,314.000061 174.359940,314.028381 171.244537,312.414215 
	C166.286697,309.845551 167.333176,302.384552 172.414139,299.798157 
	C177.583801,297.166595 183.379517,299.045776 186.415558,304.661255 
z"/>
<path fill="#FFF4EE" opacity="1.000000" stroke="none" 
	d="
M151.556458,312.949707 
	C148.297882,313.466034 145.302841,314.341980 142.487900,313.944031 
	C136.734879,313.130707 134.480804,305.950165 138.313538,301.563049 
	C141.321091,298.120483 148.989685,297.805908 152.445343,300.983307 
	C155.937485,304.194244 155.749710,308.251068 151.556458,312.949707 
z"/>
<path fill="#FFF4F0" opacity="1.000000" stroke="none" 
	d="
M212.393661,299.109924 
	C216.681488,300.624969 219.141296,303.454926 218.110168,307.500916 
	C217.508530,309.861603 215.411530,312.839081 213.292755,313.596741 
	C209.496902,314.954071 204.771225,315.474335 201.957184,311.474548 
	C200.626785,309.583557 199.809280,306.205200 200.602402,304.247345 
	C201.486420,302.065063 204.273849,300.358398 206.602066,299.165527 
	C208.039642,298.428955 210.166382,299.037537 212.393661,299.109924 
z"/>
<path fill="#665F68" opacity="1.000000" stroke="none" 
	d="
M151.497772,187.260773 
	C146.257782,196.144897 138.735367,200.332886 128.869873,199.393356 
	C118.769806,198.431519 111.867622,192.807266 108.928970,183.096375 
	C106.131058,173.850540 108.481216,165.622345 115.606102,159.025848 
	C123.494408,151.722534 135.764145,151.174088 144.637039,157.514618 
	C153.888000,164.125305 156.574860,175.336197 151.497772,187.260773 
z"/>
<path fill="#686065" opacity="1.000000" stroke="none" 
	d="
M260.952484,65.841446 
	C259.507172,57.417149 262.642120,50.867901 269.421722,47.599575 
	C275.509918,44.664562 282.567230,45.935417 287.339539,50.826157 
	C292.213684,55.821270 293.221802,63.168430 289.869324,69.262947 
	C286.431427,75.512726 279.465118,78.712395 272.490143,77.012825 
	C266.699890,75.601921 262.960297,71.831490 260.952484,65.841446 
z"/>
<path fill="#665F67" opacity="1.000000" stroke="none" 
	d="
M370.918457,192.095367 
	C371.103851,191.988037 371.217834,192.407974 371.217834,192.407974 
	C371.217834,192.407974 370.932007,192.690430 370.778503,192.653854 
	C370.625031,192.617279 370.733063,192.202698 370.918457,192.095367 
z"/>
</svg>