<svg version="1.1" id="Layer_1" xmlns="http://www.w3.org/2000/svg" xmlns:xlink="http://www.w3.org/1999/xlink" x="0px" y="0px"
	 width="100%" viewBox="0 0 512 512" enable-background="new 0 0 512 512" xml:space="preserve">
<path fill="rgba(255,255,255,0.0)" opacity="1.000000" stroke="none" 
	d="
M292.000000,513.000000 
	C194.690292,513.000000 97.880577,513.000000 1.035435,513.000000 
	C1.035435,342.398590 1.035435,171.797195 1.035435,1.097890 
	C171.559723,1.097890 342.119537,1.097890 512.839661,1.097890 
	C512.839661,171.666550 512.839661,342.333252 512.839661,513.000000 
	C439.463837,513.000000 365.981903,513.000000 292.000000,513.000000 
M99.742508,193.790802 
	C87.986488,208.846664 81.138397,225.714844 80.214386,244.624268 
	C78.293076,243.417053 76.436218,241.312424 74.438507,241.168961 
	C68.155594,240.717728 61.819473,240.967773 55.504517,241.017670 
	C51.889706,241.046249 49.336731,242.957367 49.127644,246.486938 
	C48.784389,252.281357 48.381279,258.215088 49.222866,263.909882 
	C51.687687,280.588501 56.602589,296.533081 65.537910,311.025604 
	C72.631882,322.531616 80.871933,333.091034 91.758369,341.257629 
	C98.644676,346.423462 105.861153,351.149139 112.991676,356.998657 
	C112.971695,371.643250 112.951714,386.287872 112.002151,400.990356 
	C85.025688,400.993591 58.049221,400.984161 31.072779,401.009247 
	C24.564781,401.015289 17.404404,406.455475 17.141026,412.587799 
	C16.521124,427.021240 15.836966,441.537018 25.910742,453.871552 
	C35.140411,465.172516 46.227840,472.938354 61.281197,472.953339 
	C154.533127,473.046143 247.785187,473.001312 341.037201,472.993439 
	C342.697876,472.993317 344.358551,472.885315 346.944489,472.957520 
	C349.942078,472.971680 352.943756,472.889160 355.936584,473.015808 
	C373.950165,473.778107 392.474548,458.340302 398.256653,442.718140 
	C401.677246,433.476196 400.852478,424.251282 400.931213,414.956818 
	C401.013184,405.279388 397.191742,397.221893 389.099030,391.650024 
	C385.344543,389.065002 381.193878,387.055328 376.981262,384.646759 
	C378.108185,384.183716 379.195190,383.577759 380.360840,383.282654 
	C392.672363,380.165985 401.214386,365.713684 401.122009,354.562927 
	C400.804626,316.261719 400.979614,277.956238 401.021851,239.652481 
	C401.028259,233.832108 398.477112,229.696854 393.502106,226.881256 
	C392.587555,226.363678 391.765472,225.682724 390.438995,224.753876 
	C399.074188,221.210266 401.756378,214.886490 401.076294,206.446884 
	C400.662933,201.317520 401.075623,196.126297 400.983856,190.965240 
	C400.811707,181.286163 397.200073,173.226608 389.104950,167.654755 
	C385.349030,165.069550 381.197174,163.059631 376.884216,160.594208 
	C377.681396,160.361526 378.373627,160.184219 379.049652,159.958405 
	C389.789795,156.370743 397.375977,149.462936 399.858337,138.261703 
	C401.087189,132.716644 400.729156,126.819908 402.010162,121.012299 
	C428.826050,121.008186 455.641968,121.011627 482.457855,120.995499 
	C490.845825,120.990456 496.978149,114.825539 496.996948,106.415474 
	C497.011841,99.753166 497.029205,93.090637 496.993500,86.428497 
	C496.930969,74.757835 492.316467,64.754417 484.692871,56.342480 
	C473.575165,44.075092 459.408417,39.268719 442.044373,41.031033 
	C347.401459,41.020649 252.758530,41.000816 158.115631,41.042030 
	C155.036560,41.043369 151.899475,41.396870 148.888290,42.045246 
	C129.888596,46.136276 112.260101,65.950638 112.954613,86.516510 
	C113.184860,93.334373 112.885971,100.170113 112.250740,106.643944 
	C110.074211,101.195793 106.197128,97.340355 100.304550,97.123993 
	C90.215515,96.753578 80.098984,97.132011 69.090057,97.061821 
	C60.993504,95.765579 54.979424,98.892616 49.471588,104.868439 
	C40.579430,114.516144 31.341915,123.908829 21.596989,132.683731 
	C15.677157,138.014297 15.767913,152.020966 21.541201,157.257248 
	C31.502277,166.291794 40.975319,175.911926 50.122089,185.778641 
	C55.461018,191.537796 61.336121,194.137558 69.926384,192.975739 
	C79.950615,193.038406 89.974846,193.101089 99.742508,193.790802 
z"/>
<path fill="#FABE19" opacity="1.000000" stroke="none" 
	d="
M112.931725,400.932465 
	C112.951714,386.287872 112.971695,371.643250 113.330421,356.514160 
	C134.363617,366.027252 156.127380,370.560120 179.573090,368.878357 
	C191.779404,368.637817 203.645432,369.278687 215.243042,367.805786 
	C226.315201,366.399658 237.107803,362.792114 248.370422,360.366486 
	C250.198654,360.720367 251.679672,360.980499 253.160904,360.981781 
	C280.621246,361.005798 308.081604,361.020233 335.541931,360.987488 
	C345.747742,360.975342 352.912384,354.402924 352.985840,345.136322 
	C353.060760,335.683868 345.811523,329.030731 335.316284,329.009064 
	C320.504425,328.978516 305.692444,329.003082 291.009003,328.687195 
	C297.970001,317.795441 304.802460,307.220581 312.127014,296.741211 
	C320.743317,296.888702 328.869751,297.083252 336.991119,296.955139 
	C346.254303,296.808990 353.102600,289.738129 352.986176,280.775024 
	C352.872528,272.027130 346.088013,265.258057 337.039764,265.029053 
	C331.404449,264.886353 325.763824,264.954529 320.096924,264.502930 
	C320.087677,253.742523 320.107056,243.407211 320.585144,233.052368 
	C326.687561,233.012939 332.341492,233.201324 337.972534,232.924286 
	C346.406555,232.509293 352.859222,225.609558 352.986176,217.261978 
	C353.113190,208.911255 346.847473,201.500885 338.494781,201.160660 
	C329.558380,200.796661 320.588531,201.254715 311.395355,201.105621 
	C304.400299,190.237335 297.643127,179.617401 291.363739,168.999023 
	C306.309296,169.000031 320.777161,169.021271 335.244934,168.991699 
	C345.770355,168.970184 353.009949,162.393036 352.985779,152.954971 
	C352.961670,143.541275 345.709656,137.016281 335.155914,137.008026 
	C308.049530,136.986801 280.943115,136.983231 253.836853,137.036774 
	C251.897903,137.040604 249.959961,137.565109 247.650330,137.797256 
	C225.596985,129.356415 203.014160,128.006393 179.639374,129.095001 
	C157.136841,129.012466 135.106689,128.989227 113.050369,128.500977 
	C112.959122,121.023178 112.894066,114.010429 112.829010,106.997673 
	C112.885971,100.170113 113.184860,93.334373 112.954613,86.516510 
	C112.260101,65.950638 129.888596,46.136276 148.888290,42.045246 
	C151.899475,41.396870 155.036560,41.043369 158.115631,41.042030 
	C252.758530,41.000816 347.401459,41.020649 442.191467,41.290707 
	C420.889099,44.748062 403.566986,61.869183 401.751740,82.780449 
	C400.650085,95.471268 401.252289,108.309998 401.089081,121.082283 
	C400.729156,126.819908 401.087189,132.716644 399.858337,138.261703 
	C397.375977,149.462936 389.789795,156.370743 379.049652,159.958405 
	C378.373627,160.184219 377.681396,160.361526 376.884216,160.594208 
	C381.197174,163.059631 385.349030,165.069550 389.104950,167.654755 
	C397.200073,173.226608 400.811707,181.286163 400.983856,190.965240 
	C401.075623,196.126297 400.662933,201.317520 401.076294,206.446884 
	C401.756378,214.886490 399.074188,221.210266 390.438995,224.753876 
	C391.765472,225.682724 392.587555,226.363678 393.502106,226.881256 
	C398.477112,229.696854 401.028259,233.832108 401.021851,239.652481 
	C400.979614,277.956238 400.804626,316.261719 401.122009,354.562927 
	C401.214386,365.713684 392.672363,380.165985 380.360840,383.282654 
	C379.195190,383.577759 378.108185,384.183716 376.981262,384.646759 
	C381.193878,387.055328 385.344543,389.065002 389.099030,391.650024 
	C397.191742,397.221893 401.013184,405.279388 400.931213,414.956818 
	C400.852478,424.251282 401.677246,433.476196 398.256653,442.718140 
	C392.474548,458.340302 373.950165,473.778107 355.936584,473.015808 
	C352.943756,472.889160 349.942078,472.971680 346.162476,472.706360 
	C320.974121,468.096191 303.642853,446.789734 304.878815,420.752258 
	C305.551514,406.580902 299.491791,401.005920 285.403656,401.000244 
	C227.913010,400.977081 170.422363,400.954956 112.931725,400.932465 
z"/>
<path fill="#F04B37" opacity="1.000000" stroke="none" 
	d="
M179.115494,368.835938 
	C156.127380,370.560120 134.363617,366.027252 113.299347,356.050964 
	C105.861153,351.149139 98.644676,346.423462 91.758369,341.257629 
	C80.871933,333.091034 72.631882,322.531616 65.537910,311.025604 
	C56.602589,296.533081 51.687687,280.588501 49.222866,263.909882 
	C48.381279,258.215088 48.784389,252.281357 49.127644,246.486938 
	C49.336731,242.957367 51.889706,241.046249 55.504517,241.017670 
	C61.819473,240.967773 68.155594,240.717728 74.438507,241.168961 
	C76.436218,241.312424 78.293076,243.417053 80.588577,245.265533 
	C81.369522,251.548767 81.326164,257.265839 82.253288,262.820953 
	C90.682167,313.325012 138.626251,345.002930 185.933609,334.985504 
	C220.756653,327.611664 243.984589,306.378723 253.436020,272.240143 
	C262.901154,238.052124 253.549255,207.991486 227.601685,183.773117 
	C208.671936,166.104843 185.445221,159.902313 159.496094,161.105988 
	C143.718231,161.050873 128.398346,161.041458 112.604950,161.024384 
	C106.000526,161.011169 99.869629,161.001968 93.738724,161.000763 
	C81.011856,160.998260 80.742577,161.007263 81.089905,173.893723 
	C81.340897,183.205856 77.635788,189.458557 68.998543,192.831528 
	C61.336121,194.137558 55.461018,191.537796 50.122089,185.778641 
	C40.975319,175.911926 31.502277,166.291794 21.541201,157.257248 
	C15.767913,152.020966 15.677157,138.014297 21.596989,132.683731 
	C31.341915,123.908829 40.579430,114.516144 49.471588,104.868439 
	C54.979424,98.892616 60.993504,95.765579 69.792328,97.341370 
	C77.901421,101.345177 81.593307,107.206139 81.027321,115.630066 
	C80.850273,118.265121 81.185989,120.938240 80.958221,123.565437 
	C80.608765,127.596275 82.067749,129.195007 86.278221,129.073502 
	C95.204597,128.815918 104.143051,128.976746 113.076553,128.966003 
	C135.106689,128.989227 157.136841,129.012466 179.970062,129.290237 
	C185.359421,130.253983 190.015442,130.665375 194.520691,131.720428 
	C225.099106,138.881332 249.755341,154.951477 267.642395,180.961029 
	C285.605469,207.081085 292.214050,235.961227 287.603912,267.233643 
	C284.794708,286.289642 277.536652,303.710876 266.131592,319.326782 
	C250.079468,341.305481 229.037598,356.319702 202.924713,363.917084 
	C195.167877,366.173889 187.061630,367.229797 179.115494,368.835938 
z"/>
<path fill="#F5871E" opacity="1.000000" stroke="none" 
	d="
M112.466934,400.961426 
	C170.422363,400.954956 227.913010,400.977081 285.403656,401.000244 
	C299.491791,401.005920 305.551514,406.580902 304.878815,420.752258 
	C303.642853,446.789734 320.974121,468.096191 345.699860,472.641418 
	C344.358551,472.885315 342.697876,472.993317 341.037201,472.993439 
	C247.785187,473.001312 154.533127,473.046143 61.281197,472.953339 
	C46.227840,472.938354 35.140411,465.172516 25.910742,453.871552 
	C15.836966,441.537018 16.521124,427.021240 17.141026,412.587799 
	C17.404404,406.455475 24.564781,401.015289 31.072779,401.009247 
	C58.049221,400.984161 85.025688,400.993591 112.466934,400.961426 
z"/>
<path fill="#F0E1CD" opacity="1.000000" stroke="none" 
	d="
M159.954071,161.151672 
	C185.445221,159.902313 208.671936,166.104843 227.601685,183.773117 
	C253.549255,207.991486 262.901154,238.052124 253.436020,272.240143 
	C243.984589,306.378723 220.756653,327.611664 185.933609,334.985504 
	C138.626251,345.002930 90.682167,313.325012 82.253288,262.820953 
	C81.326164,257.265839 81.369522,251.548767 80.897995,245.452942 
	C81.138397,225.714844 87.986488,208.846664 100.187210,193.342773 
	C105.139328,187.598022 109.646736,182.301270 114.486694,177.016647 
	C116.042213,176.989502 117.595634,177.425568 118.438560,176.839615 
	C130.976944,168.123459 145.011688,163.456741 159.954071,161.151672 
M159.052170,227.149277 
	C155.193527,230.912537 151.408615,234.756439 147.433151,238.391968 
	C146.171432,239.545807 144.427963,240.820206 142.860291,240.880646 
	C135.878311,241.149719 128.879059,240.922699 121.888229,241.024399 
	C116.453293,241.103455 112.981232,244.371552 113.033646,249.080566 
	C113.085831,253.769348 116.564262,256.906799 122.059883,256.979218 
	C128.884521,257.069183 135.713821,257.110413 142.535751,256.947968 
	C145.155136,256.885590 146.586929,257.585022 147.899231,260.079834 
	C152.852188,269.495880 163.065796,274.486816 172.873947,272.720703 
	C183.105011,270.878448 190.894730,263.075592 192.724548,252.836685 
	C194.480652,243.010254 189.511871,232.878052 180.044724,227.886810 
	C177.534256,226.563263 176.925430,225.090424 176.951187,222.499725 
	C177.068741,210.680573 177.025192,198.859543 176.993347,187.039307 
	C176.976318,180.718613 174.043121,177.075104 169.062042,177.031464 
	C164.067154,176.987717 161.027176,180.651230 161.007874,186.905289 
	C160.971878,198.559021 161.044449,210.213333 160.944458,221.866318 
	C160.930115,223.537598 160.206482,225.202774 159.052170,227.149277 
M238.896988,243.613007 
	C233.393799,239.348831 227.117889,240.155685 221.451813,242.267990 
	C219.312653,243.065475 217.564728,247.423401 217.365845,250.278641 
	C217.117645,253.841675 220.056091,256.283203 223.729553,256.798370 
	C226.340454,257.164520 229.034134,257.042633 231.687500,256.984558 
	C239.700867,256.809235 242.826889,251.596405 238.896988,243.613007 
M170.180817,320.891663 
	C172.130875,319.494202 175.499222,318.322388 175.764236,316.656830 
	C176.549408,311.721954 176.762909,306.481598 175.930603,301.576050 
	C175.333328,298.055878 171.629456,296.654114 167.969345,297.138824 
	C164.061859,297.656250 161.643097,300.091675 161.153885,303.992126 
	C160.825333,306.611481 160.949158,309.300262 161.017578,311.954193 
	C161.168106,317.794434 163.280640,320.019989 170.180817,320.891663 
z"/>
<path fill="#F5871E" opacity="1.000000" stroke="none" 
	d="
M401.549622,121.047287 
	C401.252289,108.309998 400.650085,95.471268 401.751740,82.780449 
	C403.566986,61.869183 420.889099,44.748062 442.654205,41.356045 
	C459.408417,39.268719 473.575165,44.075092 484.692871,56.342480 
	C492.316467,64.754417 496.930969,74.757835 496.993500,86.428497 
	C497.029205,93.090637 497.011841,99.753166 496.996948,106.415474 
	C496.978149,114.825539 490.845825,120.990456 482.457855,120.995499 
	C455.641968,121.011627 428.826050,121.008186 401.549622,121.047287 
z"/>
<path fill="#D7322D" opacity="1.000000" stroke="none" 
	d="
M113.050369,128.500977 
	C104.143051,128.976746 95.204597,128.815918 86.278221,129.073502 
	C82.067749,129.195007 80.608765,127.596275 80.958221,123.565437 
	C81.185989,120.938240 80.850273,118.265121 81.027321,115.630066 
	C81.593307,107.206139 77.901421,101.345177 70.244301,97.408447 
	C80.098984,97.132011 90.215515,96.753578 100.304550,97.123993 
	C106.197128,97.340355 110.074211,101.195793 112.539871,106.820808 
	C112.894066,114.010429 112.959122,121.023178 113.050369,128.500977 
z"/>
<path fill="#D7322D" opacity="1.000000" stroke="none" 
	d="
M114.154144,177.004532 
	C109.646736,182.301270 105.139328,187.598022 100.315491,193.029266 
	C89.974846,193.101089 79.950615,193.038406 69.462463,192.903625 
	C77.635788,189.458557 81.340897,183.205856 81.089905,173.893723 
	C80.742577,161.007263 81.011856,160.998260 93.738724,161.000763 
	C99.869629,161.001968 106.000526,161.011169 112.578529,161.473633 
	C113.401794,166.955200 113.777969,171.979858 114.154144,177.004532 
z"/>
<path fill="#D7332D" opacity="1.000000" stroke="none" 
	d="
M179.573090,368.878357 
	C187.061630,367.229797 195.167877,366.173889 202.924713,363.917084 
	C229.037598,356.319702 250.079468,341.305481 266.131592,319.326782 
	C277.536652,303.710876 284.794708,286.289642 287.603912,267.233643 
	C292.214050,235.961227 285.605469,207.081085 267.642395,180.961029 
	C249.755341,154.951477 225.099106,138.881332 194.520691,131.720428 
	C190.015442,130.665375 185.359421,130.253983 180.442474,129.349548 
	C203.014160,128.006393 225.596985,129.356415 247.844360,138.087799 
	C264.532806,145.888580 278.619659,156.178192 290.885986,168.997467 
	C297.643127,179.617401 304.400299,190.237335 311.469055,201.467789 
	C314.562592,212.409500 317.344543,222.740707 320.126465,233.071915 
	C320.107056,243.407211 320.087677,253.742523 320.022461,264.906738 
	C317.196075,276.039032 314.415527,286.342407 311.634949,296.645752 
	C304.802460,307.220581 297.970001,317.795441 290.729736,328.851776 
	C278.825073,341.529694 265.732208,351.524445 250.355118,358.391968 
	C249.488617,358.778931 248.796555,359.556519 248.023300,360.152283 
	C237.107803,362.792114 226.315201,366.399658 215.243042,367.805786 
	C203.645432,369.278687 191.779404,368.637817 179.573090,368.878357 
z"/>
<path fill="#F5871E" opacity="1.000000" stroke="none" 
	d="
M291.363739,168.999023 
	C278.619659,156.178192 264.532806,145.888580 248.215576,138.138031 
	C249.959961,137.565109 251.897903,137.040604 253.836853,137.036774 
	C280.943115,136.983231 308.049530,136.986801 335.155914,137.008026 
	C345.709656,137.016281 352.961670,143.541275 352.985779,152.954971 
	C353.009949,162.393036 345.770355,168.970184 335.244934,168.991699 
	C320.777161,169.021271 306.309296,169.000031 291.363739,168.999023 
z"/>
<path fill="#F5871E" opacity="1.000000" stroke="none" 
	d="
M248.370422,360.366516 
	C248.796555,359.556519 249.488617,358.778931 250.355118,358.391968 
	C265.732208,351.524445 278.825073,341.529694 290.601257,329.168701 
	C305.692444,329.003082 320.504425,328.978516 335.316284,329.009064 
	C345.811523,329.030731 353.060760,335.683868 352.985840,345.136322 
	C352.912384,354.402924 345.747742,360.975342 335.541931,360.987488 
	C308.081604,361.020233 280.621246,361.005798 253.160904,360.981781 
	C251.679672,360.980499 250.198654,360.720367 248.370422,360.366516 
z"/>
<path fill="#F5871E" opacity="1.000000" stroke="none" 
	d="
M312.127045,296.741211 
	C314.415527,286.342407 317.196075,276.039032 320.051117,265.331879 
	C325.763824,264.954529 331.404449,264.886353 337.039764,265.029053 
	C346.088013,265.258057 352.872528,272.027130 352.986176,280.775024 
	C353.102600,289.738129 346.254303,296.808990 336.991119,296.955139 
	C328.869751,297.083252 320.743317,296.888702 312.127045,296.741211 
z"/>
<path fill="#F5871E" opacity="1.000000" stroke="none" 
	d="
M320.585144,233.052368 
	C317.344543,222.740707 314.562592,212.409500 311.706970,201.716141 
	C320.588531,201.254715 329.558380,200.796661 338.494781,201.160660 
	C346.847473,201.500885 353.113190,208.911255 352.986176,217.261978 
	C352.859222,225.609558 346.406555,232.509293 337.972534,232.924286 
	C332.341492,233.201324 326.687561,233.012939 320.585144,233.052368 
z"/>
<path fill="#FABF1C" opacity="1.000000" stroke="none" 
	d="
M114.486694,177.016647 
	C113.777969,171.979858 113.401794,166.955200 113.052048,161.481293 
	C128.398346,161.041458 143.718231,161.050873 159.496094,161.105988 
	C145.011688,163.456741 130.976944,168.123459 118.438560,176.839615 
	C117.595634,177.425568 116.042213,176.989502 114.486694,177.016647 
z"/>
<path fill="#363845" opacity="1.000000" stroke="none" 
	d="
M159.431641,227.010040 
	C160.206482,225.202774 160.930115,223.537598 160.944458,221.866318 
	C161.044449,210.213333 160.971878,198.559021 161.007874,186.905289 
	C161.027176,180.651230 164.067154,176.987717 169.062042,177.031464 
	C174.043121,177.075104 176.976318,180.718613 176.993347,187.039307 
	C177.025192,198.859543 177.068741,210.680573 176.951187,222.499725 
	C176.925430,225.090424 177.534256,226.563263 180.044724,227.886810 
	C189.511871,232.878052 194.480652,243.010254 192.724548,252.836685 
	C190.894730,263.075592 183.105011,270.878448 172.873947,272.720703 
	C163.065796,274.486816 152.852188,269.495880 147.899231,260.079834 
	C146.586929,257.585022 145.155136,256.885590 142.535751,256.947968 
	C135.713821,257.110413 128.884521,257.069183 122.059883,256.979218 
	C116.564262,256.906799 113.085831,253.769348 113.033646,249.080566 
	C112.981232,244.371552 116.453293,241.103455 121.888229,241.024399 
	C128.879059,240.922699 135.878311,241.149719 142.860291,240.880646 
	C144.427963,240.820206 146.171432,239.545807 147.433151,238.391968 
	C151.408615,234.756439 155.193527,230.912537 159.431641,227.010040 
M161.833786,252.384567 
	C163.956314,256.221405 167.145340,257.803009 171.397827,256.548279 
	C175.444366,255.354340 177.777054,251.067795 176.768005,247.119888 
	C175.691956,242.909836 171.310074,240.206711 167.186478,241.209152 
	C162.665283,242.308258 160.646683,246.029922 161.833786,252.384567 
z"/>
<path fill="#BBB09C" opacity="1.000000" stroke="none" 
	d="
M239.145081,243.919937 
	C242.826889,251.596405 239.700867,256.809235 231.687500,256.984558 
	C229.034134,257.042633 226.340454,257.164520 223.729553,256.798370 
	C220.056091,256.283203 217.117645,253.841675 217.365845,250.278641 
	C217.564728,247.423401 219.312653,243.065475 221.451813,242.267990 
	C227.117889,240.155685 233.393799,239.348831 239.145081,243.919937 
z"/>
<path fill="#BBB09C" opacity="1.000000" stroke="none" 
	d="
M169.784576,320.924438 
	C163.280640,320.019989 161.168106,317.794434 161.017578,311.954193 
	C160.949158,309.300262 160.825333,306.611481 161.153885,303.992126 
	C161.643097,300.091675 164.061859,297.656250 167.969345,297.138824 
	C171.629456,296.654114 175.333328,298.055878 175.930603,301.576050 
	C176.762909,306.481598 176.549408,311.721954 175.764236,316.656830 
	C175.499222,318.322388 172.130875,319.494202 169.784576,320.924438 
z"/>
<path fill="#EC8320" opacity="1.000000" stroke="none" 
	d="
M161.671570,252.030334 
	C160.646683,246.029922 162.665283,242.308258 167.186478,241.209152 
	C171.310074,240.206711 175.691956,242.909836 176.768005,247.119888 
	C177.777054,251.067795 175.444366,255.354340 171.397827,256.548279 
	C167.145340,257.803009 163.956314,256.221405 161.671570,252.030334 
z"/>
</svg>