<svg version="1.1" id="Layer_1" xmlns="http://www.w3.org/2000/svg" xmlns:xlink="http://www.w3.org/1999/xlink" x="0px" y="0px"
	 width="100%" viewBox="0 0 512 512" enable-background="new 0 0 512 512" xml:space="preserve">
<path fill="#00000001" opacity="1.000000" stroke="none" 
	d="
M1.000000,73.000000 
	C1.000000,49.009945 1.000000,25.019890 0.999999,1.022376 
	C171.585999,1.014917 342.171997,1.014917 513.000000,1.014917 
	C513.000000,155.355255 513.000000,309.710663 512.695312,464.858276 
	C511.468109,463.482513 510.883667,461.079437 509.566742,459.185791 
	C502.490448,449.010956 495.231995,438.962891 487.905762,428.554047 
	C482.554993,421.478088 477.334839,414.719086 472.059448,407.605682 
	C461.684326,393.213104 451.364502,379.174896 441.410309,365.072845 
	C445.717377,362.944336 449.763153,361.053772 453.573792,358.770813 
	C458.298004,355.940521 460.648560,347.945343 458.197662,342.771332 
	C454.570984,335.115295 450.641144,327.602875 446.984131,319.701660 
	C450.451843,313.430023 454.071564,307.629883 457.045654,301.515717 
	C466.963562,281.126282 468.946564,259.524353 464.627197,237.597107 
	C459.611023,212.132507 446.387787,191.324127 425.820496,175.333344 
	C415.072205,166.976685 403.222870,160.827576 389.942352,157.240616 
	C389.935608,135.538361 389.891724,114.278358 389.920685,92.554443 
	C389.993774,88.435555 389.997620,84.780563 389.993683,81.125595 
	C389.981415,69.689644 383.271240,63.032772 371.750061,63.023407 
	C338.856079,62.996677 305.962128,62.970016 273.039001,62.477936 
	C273.006592,49.687866 272.831055,37.360088 273.053253,25.039482 
	C273.238647,14.757526 261.474915,4.741279 252.740082,4.830912 
	C214.437607,5.223954 176.128769,4.982605 137.822388,5.048833 
	C135.757095,5.052404 133.521301,5.374482 131.657333,6.204803 
	C122.304672,10.371029 117.985085,17.818489 117.991325,27.958572 
	C117.998497,39.616016 117.940491,51.273502 117.448608,62.961235 
	C84.094482,62.994366 51.202511,62.979523 18.310600,63.016186 
	C12.273273,63.022915 7.384615,65.357147 3.934264,70.511604 
	C3.248185,71.536537 1.992839,72.180412 1.000000,73.000000 
z"/>
<path fill="#00000001" opacity="1.000000" stroke="none" 
	d="
M513.000000,482.000000 
	C513.000000,492.327332 513.000000,502.654663 513.000000,512.986450 
	C342.438568,512.990967 171.877121,512.990967 1.000000,512.990967 
	C1.000000,443.312744 1.000000,373.625031 1.271010,303.149689 
	C2.000929,302.813995 2.645258,303.182831 2.890599,303.730408 
	C5.945454,310.548859 11.175301,313.228424 18.603088,313.081268 
	C32.759609,312.800812 46.925804,312.967194 61.087475,313.042908 
	C62.781448,313.051941 64.472267,313.650360 66.087738,314.345734 
	C60.725174,325.394470 60.494659,329.229218 73.180527,333.764832 
	C82.649704,337.150391 91.751686,341.561859 101.022896,345.503021 
	C103.145172,346.405212 104.328056,347.302582 104.157951,350.277161 
	C103.700554,358.275696 103.872345,366.320465 104.057632,374.340790 
	C104.140671,377.935272 103.691315,380.010254 99.511086,381.453125 
	C88.634834,385.207275 78.074104,389.876923 67.394318,394.198181 
	C62.907383,396.013702 61.074936,399.758575 62.877762,404.465240 
	C66.767792,414.621002 70.816277,424.719360 74.996788,434.759216 
	C77.239037,440.144196 80.578377,441.240784 85.966965,439.019043 
	C98.095901,434.018188 110.246483,429.069855 121.891251,424.303589 
	C127.989586,430.649658 133.572250,437.184387 139.932373,442.845703 
	C144.924408,447.289246 145.420853,447.653778 142.838028,453.580170 
	C138.364685,463.844421 134.228622,474.255280 129.798035,484.538727 
	C127.830132,489.106262 129.107834,492.211090 133.488983,494.096710 
	C143.920837,498.586517 154.339905,503.115234 164.877045,507.347076 
	C169.453384,509.184998 172.146576,507.535767 174.072250,502.937958 
	C178.650482,492.006744 183.427399,481.157684 187.907562,470.187042 
	C189.437515,466.440613 191.249023,465.889282 195.398270,466.454559 
	C202.585785,467.433777 210.116425,467.639130 217.258377,466.555634 
	C221.560318,465.902985 222.696259,466.967804 224.032837,470.326691 
	C228.357956,481.196259 232.767120,492.037170 237.418716,502.770050 
	C239.867081,508.419312 242.289612,509.435150 248.309067,507.176758 
	C258.474792,503.362762 268.541687,499.267548 278.534485,495.018524 
	C283.051971,493.097626 283.919617,489.914886 282.071777,485.333008 
	C277.034454,472.842621 272.044647,460.333099 267.922821,450.044708 
	C275.984711,441.371094 283.358215,433.438110 290.718536,425.519287 
	C292.771515,426.310486 295.054596,427.131622 297.291962,428.062744 
	C307.179077,432.177582 316.976685,436.521515 326.962036,440.380615 
	C332.441711,442.498413 335.135712,441.214203 337.523865,435.878387 
	C341.640533,426.680328 345.109497,417.173553 349.591278,408.165009 
	C352.186798,402.947906 350.493927,398.264923 345.437195,396.140076 
	C336.908875,392.556488 328.368408,389.001587 319.853638,385.386139 
	C316.557251,383.986450 312.179169,383.263397 310.388275,380.743500 
	C308.772705,378.470276 310.016174,374.164734 310.000092,370.755463 
	C309.996948,370.088806 310.023987,369.421112 309.996185,368.755615 
	C309.720947,362.172180 309.437103,355.589081 309.476624,349.143524 
	C327.163361,359.354736 345.986450,363.496429 365.964111,363.438965 
	C369.322296,370.155212 372.345154,376.686676 376.046356,382.807922 
	C381.227539,391.376770 388.642853,393.700867 398.350708,388.185272 
	C401.097412,386.624725 404.030884,385.392853 406.932861,384.401611 
	C407.662872,386.769989 408.315002,388.755432 409.018463,390.722534 
	C414.057373,404.813293 419.106750,418.900299 424.084595,433.373169 
	C426.966034,441.848328 429.915710,449.938812 432.925812,458.421509 
	C436.466217,468.854370 439.110718,479.287994 443.608063,488.850159 
	C451.815430,506.300507 468.160950,511.914490 485.238831,508.161957 
	C498.384949,505.273346 506.577026,496.406464 510.993683,483.876556 
	C511.298401,483.012054 511.864929,482.239838 512.309692,481.424683 
	C512.539795,481.616455 512.769897,481.808228 513.000000,482.000000 
z"/>
<path fill="#FFD88A" opacity="1.000000" stroke="none" 
	d="
M1.000000,272.000000 
	C1.000000,213.979111 1.000000,155.958206 1.210128,97.789040 
	C1.962990,98.688332 2.753545,99.678406 3.011904,100.791954 
	C8.303179,123.597733 21.470724,139.803619 43.029106,149.213333 
	C54.547298,154.240753 66.654991,154.181763 78.866501,154.532425 
	C78.933281,160.300156 78.912086,165.606812 78.977852,170.912384 
	C79.090851,180.028564 85.687271,186.888245 94.391693,187.006760 
	C103.779144,187.134567 110.754021,180.436462 110.978065,170.959366 
	C111.111275,165.325043 111.081116,159.686859 111.585037,154.035294 
	C156.349930,153.997864 200.654190,153.975540 245.430756,153.970932 
	C257.282623,153.984955 268.662170,153.981247 280.086487,154.446167 
	C280.147552,159.528320 280.060852,164.145081 280.205292,168.754593 
	C280.403870,175.094116 282.098175,180.771820 287.782715,184.633514 
	C281.702484,193.065353 275.031830,200.790466 269.993744,209.463882 
	C258.779144,228.770508 256.348694,250.040207 257.667358,271.977417 
	C240.767441,272.017029 224.347260,272.048126 207.463440,272.058075 
	C138.333206,272.024628 69.666603,272.012299 1.000000,272.000000 
z"/>
<path fill="#F5B540" opacity="1.000000" stroke="none" 
	d="
M78.817650,154.070862 
	C66.654991,154.181763 54.547298,154.240753 43.029106,149.213333 
	C21.470724,139.803619 8.303179,123.597733 3.011904,100.791954 
	C2.753545,99.678406 1.962990,98.688332 1.210128,97.320381 
	C1.000000,89.312424 1.000000,81.624847 1.000000,73.468636 
	C1.992839,72.180412 3.248185,71.536537 3.934264,70.511604 
	C7.384615,65.357147 12.273273,63.022915 18.310600,63.016186 
	C51.202511,62.979523 84.094482,62.994366 117.825226,63.156006 
	C124.470192,63.186317 130.276352,63.052116 136.545807,62.953930 
	C176.647034,62.965195 216.284988,62.940441 255.971985,63.145638 
	C256.021057,63.375580 256.144653,63.829292 255.668213,63.864769 
	C242.457993,63.900246 229.724228,63.900246 216.241791,63.900246 
	C217.206161,65.806534 217.707306,66.799324 218.210327,67.791153 
	C222.495224,76.239937 227.240570,84.490913 230.971924,93.177467 
	C239.291901,112.546387 244.668701,132.689499 244.958450,153.953201 
	C200.654190,153.975540 156.349930,153.997864 111.544037,153.564636 
	C111.022499,147.474228 111.186455,141.831345 110.939941,136.206436 
	C110.562325,127.589912 102.992432,120.764030 94.407402,121.005898 
	C85.891792,121.245819 79.128265,128.103516 78.997711,136.674988 
	C78.909401,142.473190 78.875755,148.272202 78.817650,154.070862 
z"/>
<path fill="#F5B540" opacity="1.000000" stroke="none" 
	d="
M1.000000,272.468658 
	C69.666603,272.012299 138.333206,272.024628 207.426514,272.392761 
	C203.228455,278.335052 198.969772,284.282837 193.894699,289.424866 
	C185.892563,297.532593 177.341888,305.098907 168.554321,312.926514 
	C136.373688,312.971985 104.662109,312.965454 72.950722,313.040588 
	C70.687943,313.045959 68.426575,313.649963 66.164551,313.975586 
	C64.472267,313.650360 62.781448,313.051941 61.087475,313.042908 
	C46.925804,312.967194 32.759609,312.800812 18.603088,313.081268 
	C11.175301,313.228424 5.945454,310.548859 2.890599,303.730408 
	C2.645258,303.182831 2.000929,302.813995 1.271010,302.681030 
	C1.000000,292.979095 1.000000,282.958221 1.000000,272.468658 
z"/>
<path fill="#70C9E9" opacity="1.000000" stroke="none" 
	d="
M513.000000,481.532410 
	C512.769897,481.808228 512.539795,481.616455 512.309692,481.424683 
	C511.864929,482.239838 511.298401,483.012054 510.993683,483.876556 
	C506.577026,496.406464 498.384949,505.273346 485.238831,508.161957 
	C468.160950,511.914490 451.815430,506.300507 443.608063,488.850159 
	C439.110718,479.287994 436.466217,468.854370 433.292114,458.368591 
	C446.836975,450.993225 460.096588,444.101776 473.304596,437.112823 
	C478.276703,434.481842 483.129303,431.624908 488.036407,428.871033 
	C495.231995,438.962891 502.490448,449.010956 509.566742,459.185791 
	C510.883667,461.079437 511.468109,463.482513 512.695312,465.325256 
	C513.000000,470.354919 513.000000,475.709869 513.000000,481.532410 
z"/>
<path fill="#59B4D9" opacity="1.000000" stroke="none" 
	d="
M258.147156,271.968964 
	C256.348694,250.040207 258.779144,228.770508 269.993744,209.463882 
	C275.031830,200.790466 281.702484,193.065353 288.097351,184.457001 
	C296.474274,178.097427 304.386169,172.190826 312.649750,166.203415 
	C337.578064,153.669296 363.212585,150.855377 389.905182,157.682861 
	C403.222870,160.827576 415.072205,166.976685 425.820496,175.333344 
	C446.387787,191.324127 459.611023,212.132507 464.627197,237.597107 
	C468.946564,259.524353 466.963562,281.126282 457.045654,301.515717 
	C454.071564,307.629883 450.451843,313.430023 446.676453,319.818756 
	C445.311707,321.227448 444.328552,322.134827 443.495422,323.163696 
	C427.727844,342.635986 407.663635,355.183502 383.135864,360.394318 
	C377.467346,361.598572 371.669708,362.195007 365.931488,363.071136 
	C345.986450,363.496429 327.163361,359.354736 309.307404,348.842834 
	C294.225586,339.199249 282.084564,327.503296 272.675690,312.620972 
	C271.380463,310.136353 269.811371,308.088898 269.039276,305.775452 
	C265.291351,294.545746 261.757080,283.244720 258.147156,271.968964 
M287.215088,254.841629 
	C285.348999,295.253601 316.072906,331.181671 358.738403,332.943939 
	C407.227386,334.946716 439.762360,292.402191 436.048889,255.120895 
	C435.944611,252.303864 436.184174,249.424271 435.684570,246.679184 
	C427.904175,203.928391 390.072571,177.507355 347.501678,185.002899 
	C314.697632,190.778778 288.618195,220.717575 287.215088,254.841629 
z"/>
<path fill="#FAC665" opacity="1.000000" stroke="none" 
	d="
M245.430756,153.970932 
	C244.668701,132.689499 239.291901,112.546387 230.971924,93.177467 
	C227.240570,84.490913 222.495224,76.239937 218.210327,67.791153 
	C217.707306,66.799324 217.206161,65.806534 216.241791,63.900246 
	C229.724228,63.900246 242.457993,63.900246 256.121765,63.895218 
	C262.390564,63.574570 267.729340,63.258953 273.068146,62.943329 
	C305.962128,62.970016 338.856079,62.996677 371.750061,63.023407 
	C383.271240,63.032772 389.981415,69.689644 389.993683,81.125595 
	C389.997620,84.780563 389.993774,88.435555 389.697205,92.866135 
	C384.786682,124.320580 366.038330,146.207809 338.054260,152.255676 
	C329.727020,154.055344 320.896027,153.524048 312.222839,153.592224 
	C312.121704,148.957947 312.206055,144.787445 312.028442,140.628113 
	C311.894989,137.501419 312.003693,134.185043 310.989990,131.310989 
	C308.561310,124.425179 301.003448,120.085739 294.385040,121.158714 
	C286.103485,122.501335 280.564575,128.933685 280.181763,137.982513 
	C279.956543,143.306641 280.076874,148.645370 280.041748,153.977539 
	C268.662170,153.981247 257.282623,153.984955 245.430756,153.970932 
z"/>
<path fill="#EA6552" opacity="1.000000" stroke="none" 
	d="
M273.039001,62.477936 
	C267.729340,63.258953 262.390564,63.574570 256.598206,63.859741 
	C256.144653,63.829292 256.021057,63.375580 256.004883,62.681900 
	C255.992493,51.503380 256.009003,41.018520 255.995590,30.533695 
	C255.986816,23.669991 254.344727,22.001160 247.674988,22.000500 
	C223.043884,21.998064 198.412766,21.999474 173.781662,21.999565 
	C163.296799,21.999603 152.811890,22.017021 142.327087,21.992018 
	C137.951645,21.981585 135.771347,23.563871 135.907181,28.472887 
	C136.224686,39.947395 136.054932,51.435387 136.082520,62.917915 
	C130.276352,63.052116 124.470192,63.186317 118.287415,63.125748 
	C117.940491,51.273502 117.998497,39.616016 117.991325,27.958572 
	C117.985085,17.818489 122.304672,10.371029 131.657333,6.204803 
	C133.521301,5.374482 135.757095,5.052404 137.822388,5.048833 
	C176.128769,4.982605 214.437607,5.223954 252.740082,4.830912 
	C261.474915,4.741279 273.238647,14.757526 273.053253,25.039482 
	C272.831055,37.360088 273.006592,49.687866 273.039001,62.477936 
z"/>
<path fill="#DEF2FF" opacity="1.000000" stroke="none" 
	d="
M365.964111,363.438965 
	C371.669708,362.195007 377.467346,361.598572 383.135864,360.394318 
	C407.663635,355.183502 427.727844,342.635986 443.495422,323.163696 
	C444.328552,322.134827 445.311707,321.227448 446.532684,320.146423 
	C450.641144,327.602875 454.570984,335.115295 458.197662,342.771332 
	C460.648560,347.945343 458.298004,355.940521 453.573792,358.770813 
	C449.763153,361.053772 445.717377,362.944336 441.057312,365.082336 
	C429.974182,370.628387 419.596710,376.076904 409.266693,381.613983 
	C408.315765,382.123688 407.667480,383.198029 406.878693,384.010193 
	C404.030884,385.392853 401.097412,386.624725 398.350708,388.185272 
	C388.642853,393.700867 381.227539,391.376770 376.046356,382.807922 
	C372.345154,376.686676 369.322296,370.155212 365.964111,363.438965 
z"/>
<path fill="#70C9E9" opacity="1.000000" stroke="none" 
	d="
M406.932861,384.401611 
	C407.667480,383.198029 408.315765,382.123688 409.266693,381.613983 
	C419.596710,376.076904 429.974182,370.628387 440.691711,365.146210 
	C451.364502,379.174896 461.684326,393.213104 471.732819,407.749329 
	C467.642059,410.282593 463.837799,412.346802 460.000427,414.347534 
	C448.057953,420.574127 436.102966,426.776642 424.152802,432.988495 
	C419.106750,418.900299 414.057373,404.813293 409.018463,390.722534 
	C408.315002,388.755432 407.662872,386.769989 406.932861,384.401611 
z"/>
<path fill="#58B4D9" opacity="1.000000" stroke="none" 
	d="
M424.084595,433.373169 
	C436.102966,426.776642 448.057953,420.574127 460.000427,414.347534 
	C463.837799,412.346802 467.642059,410.282593 471.788086,408.103729 
	C477.334839,414.719086 482.554993,421.478088 487.905762,428.554016 
	C483.129303,431.624908 478.276703,434.481842 473.304596,437.112823 
	C460.096588,444.101776 446.836975,450.993225 433.231628,457.976410 
	C429.915710,449.938812 426.966034,441.848328 424.084595,433.373169 
z"/>
<path fill="#FED88A" opacity="1.000000" stroke="none" 
	d="
M312.295837,154.060791 
	C320.896027,153.524048 329.727020,154.055344 338.054260,152.255676 
	C366.038330,146.207809 384.786682,124.320580 389.624390,93.330048 
	C389.891724,114.278358 389.935608,135.538361 389.942352,157.240616 
	C363.212585,150.855377 337.578064,153.669296 312.587769,165.724991 
	C312.214661,161.571838 312.255249,157.816315 312.295837,154.060791 
z"/>
<path fill="#EA6552" opacity="1.000000" stroke="none" 
	d="
M272.769165,312.935547 
	C282.084564,327.503296 294.225586,339.199249 308.986511,348.705200 
	C309.437103,355.589081 309.720947,362.172180 309.996185,368.755615 
	C310.023987,369.421112 309.996948,370.088806 310.000092,370.755463 
	C310.016174,374.164734 308.772705,378.470276 310.388275,380.743500 
	C312.179169,383.263397 316.557251,383.986450 319.853638,385.386139 
	C328.368408,389.001587 336.908875,392.556488 345.437195,396.140076 
	C350.493927,398.264923 352.186798,402.947906 349.591278,408.165009 
	C345.109497,417.173553 341.640533,426.680328 337.523865,435.878387 
	C335.135712,441.214203 332.441711,442.498413 326.962036,440.380615 
	C316.976685,436.521515 307.179077,432.177582 297.291962,428.062744 
	C295.054596,427.131622 292.771515,426.310486 290.718536,425.519287 
	C283.358215,433.438110 275.984711,441.371094 267.922821,450.044708 
	C272.044647,460.333099 277.034454,472.842621 282.071777,485.333008 
	C283.919617,489.914886 283.051971,493.097626 278.534485,495.018524 
	C268.541687,499.267548 258.474792,503.362762 248.309067,507.176758 
	C242.289612,509.435150 239.867081,508.419312 237.418716,502.770050 
	C232.767120,492.037170 228.357956,481.196259 224.032837,470.326691 
	C222.696259,466.967804 221.560318,465.902985 217.258377,466.555634 
	C210.116425,467.639130 202.585785,467.433777 195.398270,466.454559 
	C191.249023,465.889282 189.437515,466.440613 187.907562,470.187042 
	C183.427399,481.157684 178.650482,492.006744 174.072250,502.937958 
	C172.146576,507.535767 169.453384,509.184998 164.877045,507.347076 
	C154.339905,503.115234 143.920837,498.586517 133.488983,494.096710 
	C129.107834,492.211090 127.830132,489.106262 129.798035,484.538727 
	C134.228622,474.255280 138.364685,463.844421 142.838028,453.580170 
	C145.420853,447.653778 144.924408,447.289246 139.932373,442.845703 
	C133.572250,437.184387 127.989586,430.649658 121.891251,424.303589 
	C110.246483,429.069855 98.095901,434.018188 85.966965,439.019043 
	C80.578377,441.240784 77.239037,440.144196 74.996788,434.759216 
	C70.816277,424.719360 66.767792,414.621002 62.877762,404.465240 
	C61.074936,399.758575 62.907383,396.013702 67.394318,394.198181 
	C78.074104,389.876923 88.634834,385.207275 99.511086,381.453125 
	C103.691315,380.010254 104.140671,377.935272 104.057632,374.340790 
	C103.872345,366.320465 103.700554,358.275696 104.157951,350.277161 
	C104.328056,347.302582 103.145172,346.405212 101.022896,345.503021 
	C91.751686,341.561859 82.649704,337.150391 73.180527,333.764832 
	C60.494659,329.229218 60.725174,325.394470 66.087738,314.345734 
	C68.426575,313.649963 70.687943,313.045959 72.950722,313.040588 
	C104.662109,312.965454 136.373688,312.971985 169.020050,312.962555 
	C176.986511,313.019440 184.018127,313.072418 190.869904,313.435669 
	C166.921799,320.920898 151.275940,346.771179 154.808334,371.451965 
	C158.726044,398.824982 184.376251,418.703552 211.824585,416.116638 
	C224.735229,414.899841 235.332123,409.389465 243.954468,400.325073 
	C251.537125,392.353668 256.303802,382.736267 258.262238,371.576477 
	C261.391174,353.746643 255.638000,338.745697 243.478256,326.566315 
	C237.653305,320.731995 229.201508,317.520264 222.410522,313.083557 
	C239.510818,313.009460 256.139984,312.972504 272.769165,312.935547 
z"/>
<path fill="#FAC665" opacity="1.000000" stroke="none" 
	d="
M191.049759,313.125397 
	C184.018127,313.072418 176.986511,313.019440 169.489136,312.930420 
	C177.341888,305.098907 185.892563,297.532593 193.894699,289.424866 
	C198.969772,284.282837 203.228455,278.335052 207.890167,272.413940 
	C224.347260,272.048126 240.767441,272.017029 257.667389,271.977417 
	C261.757080,283.244720 265.291351,294.545746 269.039276,305.775452 
	C269.811371,308.088898 271.380463,310.136353 272.675690,312.620972 
	C256.139984,312.972504 239.510818,313.009460 221.945923,313.030334 
	C211.023376,313.051361 201.036575,313.088379 191.049759,313.125397 
z"/>
<path fill="#EA6552" opacity="1.000000" stroke="none" 
	d="
M78.866501,154.532425 
	C78.875755,148.272202 78.909401,142.473190 78.997711,136.674988 
	C79.128265,128.103516 85.891792,121.245819 94.407402,121.005898 
	C102.992432,120.764030 110.562325,127.589912 110.939941,136.206436 
	C111.186455,141.831345 111.022499,147.474228 111.083405,153.579742 
	C111.081116,159.686859 111.111275,165.325043 110.978065,170.959366 
	C110.754021,180.436462 103.779144,187.134567 94.391693,187.006760 
	C85.687271,186.888245 79.090851,180.028564 78.977852,170.912384 
	C78.912086,165.606812 78.933281,160.300156 78.866501,154.532425 
z"/>
<path fill="#EA6653" opacity="1.000000" stroke="none" 
	d="
M312.222839,153.592224 
	C312.255249,157.816315 312.214661,161.571838 312.236084,165.805786 
	C304.386169,172.190826 296.474274,178.097427 288.247681,184.180573 
	C282.098175,180.771820 280.403870,175.094116 280.205292,168.754593 
	C280.060852,164.145081 280.147552,159.528320 280.086487,154.446167 
	C280.076874,148.645370 279.956543,143.306641 280.181763,137.982513 
	C280.564575,128.933685 286.103485,122.501335 294.385040,121.158714 
	C301.003448,120.085739 308.561310,124.425179 310.989990,131.310989 
	C312.003693,134.185043 311.894989,137.501419 312.028442,140.628113 
	C312.206055,144.787445 312.121704,148.957947 312.222839,153.592224 
z"/>
<path fill="#00000001" opacity="1.000000" stroke="none" 
	d="
M136.545807,62.953930 
	C136.054932,51.435387 136.224686,39.947395 135.907181,28.472887 
	C135.771347,23.563871 137.951645,21.981585 142.327087,21.992018 
	C152.811890,22.017021 163.296799,21.999603 173.781662,21.999565 
	C198.412766,21.999474 223.043884,21.998064 247.674988,22.000500 
	C254.344727,22.001160 255.986816,23.669991 255.995590,30.533695 
	C256.009003,41.018520 255.992493,51.503380 255.955811,62.451958 
	C216.284988,62.940441 176.647034,62.965195 136.545807,62.953930 
z"/>
<path fill="#DEF2FF" opacity="1.000000" stroke="none" 
	d="
M287.359192,254.045502 
	C288.618195,220.717575 314.697632,190.778778 347.501678,185.002899 
	C390.072571,177.507355 427.904175,203.928391 435.684570,246.679184 
	C436.184174,249.424271 435.944611,252.303864 435.619415,255.677765 
	C431.737000,263.731171 429.280762,271.917511 424.654541,278.602081 
	C406.863281,304.309082 382.208099,316.492401 350.854950,311.906525 
	C323.052338,307.839996 303.542664,292.207153 292.544586,266.202759 
	C290.828491,262.145142 289.088257,258.097656 287.359192,254.045502 
z"/>
<path fill="#E9F6FF" opacity="1.000000" stroke="none" 
	d="
M287.287140,254.443573 
	C289.088257,258.097656 290.828491,262.145142 292.544586,266.202759 
	C303.542664,292.207153 323.052338,307.839996 350.854950,311.906525 
	C382.208099,316.492401 406.863281,304.309082 424.654541,278.602081 
	C429.280762,271.917511 431.737000,263.731171 435.521729,256.126282 
	C439.762360,292.402191 407.227386,334.946716 358.738403,332.943939 
	C316.072906,331.181671 285.348999,295.253601 287.287140,254.443573 
z"/>
<path fill="#00000001" opacity="1.000000" stroke="none" 
	d="
M190.869904,313.435669 
	C201.036575,313.088379 211.023376,313.051361 221.474792,313.067535 
	C229.201508,317.520264 237.653305,320.731995 243.478256,326.566315 
	C255.638000,338.745697 261.391174,353.746643 258.262238,371.576477 
	C256.303802,382.736267 251.537125,392.353668 243.954468,400.325073 
	C235.332123,409.389465 224.735229,414.899841 211.824585,416.116638 
	C184.376251,418.703552 158.726044,398.824982 154.808334,371.451965 
	C151.275940,346.771179 166.921799,320.920898 190.869904,313.435669 
z"/>
</svg>