<svg version="1.1" id="Layer_1" xmlns="http://www.w3.org/2000/svg" xmlns:xlink="http://www.w3.org/1999/xlink" x="0px" y="0px"
	 width="100%" viewBox="0 0 500 500" enable-background="new 0 0 500 500" xml:space="preserve">
<path fill="rgba(255, 255, 255,0.1)" opacity="1.000000" stroke="none" 
	d="
M1.000000,174.000000 
	C1.000000,116.014359 1.000000,58.528713 1.000000,1.021535 
	C167.610703,1.021535 334.221405,1.021535 500.916046,1.021535 
	C500.916046,167.569046 500.916046,334.138153 500.916046,500.853638 
	C334.333435,500.853638 167.666733,500.853638 1.000000,500.853638 
	C1.000000,392.111816 1.000000,283.305908 1.000000,174.000000 
M124.000557,261.898071 
	C124.000557,275.569977 124.000557,289.241882 124.000557,302.913788 
	C124.952179,289.468414 124.963348,276.027557 124.910583,262.586914 
	C124.908508,262.059052 124.295609,261.533569 123.490608,260.305634 
	C102.925331,260.305634 82.360054,260.305634 61.794773,260.305634 
	C61.795303,260.521637 61.795830,260.737671 61.796360,260.953674 
	C82.543587,260.953674 103.290817,260.953674 124.000557,261.898071 
M290.222870,16.446484 
	C290.149780,17.272165 290.012970,18.097828 290.012726,18.923531 
	C290.001617,57.559601 290.000275,96.195671 290.012543,134.831741 
	C290.012909,135.964767 290.171936,137.097748 290.256958,138.230743 
	C290.486389,138.225571 290.715790,138.220398 290.945221,138.215225 
	C290.945221,97.472534 290.945221,56.729851 291.892242,15.995682 
	C303.647522,15.995682 315.402771,15.995682 327.158051,15.995682 
	C315.465698,15.149646 303.772736,15.141451 292.079987,15.187670 
	C291.714600,15.189115 291.351410,15.753012 290.222870,16.446484 
M338.186554,474.165253 
	C332.221832,474.139801 326.255890,474.177856 320.292999,474.059082 
	C317.756195,474.008545 316.607544,474.970520 316.786224,477.548553 
	C316.889099,479.032745 316.939545,480.545105 316.775726,482.018311 
	C316.404999,485.352386 317.909882,486.332001 321.080536,486.217773 
	C327.037903,486.003204 333.006470,486.098389 339.906189,486.176300 
	C353.756592,486.176300 367.606964,486.176300 381.457001,486.176300 
	C381.457001,482.984192 381.314697,480.667816 381.490326,478.375824 
	C381.753815,474.937531 379.890320,474.111237 376.950958,474.137299 
	C364.341492,474.249207 351.731567,474.306458 338.186554,474.165253 
M76.194138,474.181976 
	C72.373459,474.148132 68.552803,474.090027 64.732086,474.085083 
	C54.304638,474.071564 54.301376,474.080719 55.224850,484.745026 
	C55.250011,485.035614 55.531013,485.303986 55.952995,486.031433 
	C62.789539,486.031433 69.887802,486.031433 77.917908,486.161591 
	C91.800545,486.161591 105.683189,486.161591 119.648788,486.161591 
	C119.648788,481.857910 119.648788,478.289642 119.648788,474.407990 
	C105.271332,474.407990 91.200317,474.407990 76.194138,474.181976 
M226.098511,80.008713 
	C222.455750,80.008713 218.812973,80.008713 214.631653,80.008713 
	C212.624390,99.684685 210.649155,119.046776 208.651199,138.631668 
	C213.454224,138.631668 217.253311,138.631668 221.968109,138.799240 
	C232.180435,138.799240 242.392776,138.799240 252.900314,138.799240 
	C250.826401,118.831337 248.828415,99.594513 246.809494,80.156036 
	C239.893875,80.156036 233.452530,80.156036 226.098511,80.008713 
M128.097168,79.993057 
	C124.327690,79.993057 120.558212,79.993057 116.511238,79.993057 
	C114.506516,99.778008 112.556725,119.020714 110.569618,138.631775 
	C115.148315,138.631775 119.088531,138.631775 123.946907,138.807724 
	C134.073990,138.807724 144.201065,138.807724 154.806931,138.807724 
	C152.789749,118.998741 150.824875,99.703484 148.835190,80.164574 
	C141.923325,80.164574 135.468018,80.164574 128.097168,79.993057 
M330.139679,80.001198 
	C326.693298,80.001198 323.246948,80.001198 319.469055,80.001198 
	C317.472748,99.739449 315.524414,119.003433 313.538574,138.638031 
	C318.137543,138.638031 322.080414,138.638031 326.943024,138.807693 
	C337.049652,138.807693 347.156250,138.807693 357.793976,138.807693 
	C355.778625,118.987061 353.818604,99.710403 351.832489,80.177452 
	C344.611176,80.177452 337.834869,80.177452 330.139679,80.001198 
M119.045982,370.655334 
	C130.537720,370.708832 142.029404,370.785828 153.521194,370.809631 
	C166.514969,370.836517 179.508896,370.798645 192.502686,370.824677 
	C197.057129,370.833801 201.270386,369.721832 201.852859,364.604889 
	C202.463715,359.238831 201.989502,353.749207 201.989502,348.659210 
	C194.104141,345.414581 182.845932,353.234497 179.298218,340.174591 
	C173.092728,340.464172 166.993515,340.672546 160.912003,341.121063 
	C160.074326,341.182831 159.020370,342.285278 158.587036,343.162903 
	C156.788589,346.805420 153.820984,347.896606 149.986786,347.885498 
	C138.995529,347.853638 128.003845,347.971558 116.078720,347.915802 
	C105.895073,347.915802 95.711426,347.915802 85.168335,347.915802 
	C85.168335,353.550903 84.965889,358.342712 85.228043,363.108917 
	C85.467003,367.453430 88.077248,370.548035 92.384605,370.677612 
	C100.968208,370.935791 109.571793,370.529633 119.045982,370.655334 
M420.926758,158.937256 
	C420.926758,170.210052 420.926758,181.482834 420.926758,192.808716 
	C434.656860,192.808716 447.732880,192.808716 461.364929,192.808716 
	C457.480530,155.110535 453.632294,117.763069 449.758545,80.168198 
	C442.926239,80.168198 436.470398,80.168198 429.097931,80.002663 
	C425.339569,80.002663 421.581207,80.002663 418.107758,80.002663 
	C417.694031,80.870079 417.459503,81.153870 417.427277,81.459015 
	C415.357300,101.068161 413.277740,120.676445 411.316589,140.296555 
	C411.205231,141.410538 411.906555,142.720978 412.518036,143.772202 
	C415.296783,148.549316 418.178955,153.266281 420.926758,158.937256 
M406.109131,244.505951 
	C406.063080,244.339310 406.016998,244.172684 406.170502,243.086533 
	C406.178650,217.119171 406.189575,191.151794 406.193451,165.184433 
	C406.194946,155.308655 404.138855,153.275879 394.145874,153.275360 
	C341.711578,153.272629 289.277313,153.271500 236.843033,153.286209 
	C235.191467,153.286667 233.539948,153.465576 231.080841,153.665375 
	C230.944000,154.151031 230.807175,154.636703 230.369919,156.002670 
	C230.353745,179.662125 230.314941,203.321609 230.337952,226.981033 
	C230.343445,232.629257 230.555161,238.277283 230.478012,244.520691 
	C230.587524,244.698349 230.697021,244.876022 231.277359,245.807251 
	C233.100464,245.856079 234.923553,245.947067 236.746674,245.947479 
	C273.614227,245.955841 310.481812,245.948776 347.349365,245.958221 
	C354.480682,245.960037 356.095947,247.238358 357.298492,254.632996 
	C355.923859,259.543457 352.306366,260.737061 347.699097,260.725311 
	C324.055969,260.665222 300.412598,260.692841 276.769318,260.707825 
	C275.025360,260.708923 273.281464,260.852173 271.387726,260.935944 
	C271.387726,284.118927 271.453644,306.742462 271.359772,329.365295 
	C271.313202,340.591675 264.065918,347.695221 252.832138,347.804932 
	C246.339172,347.868378 239.845093,347.818604 233.351517,347.819183 
	C227.937805,347.819641 222.524109,347.819244 216.921173,347.819244 
	C216.921173,353.015930 216.944427,357.496246 216.916870,361.976196 
	C216.829681,376.154114 207.711365,385.346802 193.421570,385.377594 
	C160.287827,385.448914 127.153679,385.460144 94.019997,385.376465 
	C79.690041,385.340271 70.808250,376.280457 70.650848,361.874756 
	C70.600647,357.280701 70.642998,352.685638 70.642998,348.010529 
	C64.953178,348.010529 59.977539,348.010529 54.080681,347.821350 
	C45.100777,347.813690 36.119816,347.882080 27.141541,347.757111 
	C24.003437,347.713409 22.590254,348.794922 22.595762,352.064484 
	C22.651522,385.157288 22.598658,418.250275 22.678205,451.342987 
	C22.690420,456.424164 25.268478,459.352020 30.212757,459.466278 
	C38.835358,459.665558 47.470078,459.340485 56.987488,459.492096 
	C57.818958,459.515900 58.650425,459.560638 59.481895,459.560638 
	C166.996155,459.562012 274.510406,459.567474 382.024658,459.542755 
	C389.665741,459.540985 397.306763,459.315887 405.620514,459.237885 
	C405.733063,458.828613 405.845612,458.419312 406.160034,457.090363 
	C406.170288,446.777344 406.168365,436.464264 406.195099,426.151276 
	C406.212433,419.460083 407.383850,417.922699 414.584778,416.144073 
	C419.337341,417.458069 421.074921,420.686615 421.017426,425.474823 
	C420.882446,436.716278 420.974213,447.960449 420.974213,459.703094 
	C423.414948,459.703094 425.219116,459.562866 426.994293,459.730316 
	C431.659668,460.170410 433.841705,458.447540 433.311310,453.485657 
	C432.977478,450.362518 433.249420,447.174652 433.249359,444.015808 
	C433.248932,421.903931 433.314911,399.791443 433.125610,377.681183 
	C433.109955,375.851471 431.705688,372.849823 430.352692,372.461395 
	C427.519623,371.648010 424.290314,372.214752 420.973907,372.214752 
	C420.973907,377.491913 420.790741,381.981842 421.020630,386.450500 
	C421.303070,391.940643 419.048859,395.353394 412.995636,396.369690 
	C407.828857,395.293854 406.135101,391.879822 406.153137,386.895966 
	C406.236908,363.744476 406.217377,340.592499 406.181519,317.440735 
	C406.152924,298.958893 406.047607,280.477142 406.027496,261.367615 
	C405.680298,261.225830 405.333069,261.084045 404.070770,260.731537 
	C398.484039,260.720245 392.897186,260.728210 387.310608,260.692688 
	C380.790955,260.651215 379.034668,259.286621 377.617737,252.283157 
	C378.579803,247.595337 381.635284,245.815674 386.205078,245.934509 
	C389.996674,246.033127 393.798004,246.074966 397.585297,245.913574 
	C400.367676,245.795029 403.134308,245.307236 406.109131,244.505951 
M106.816650,191.299713 
	C106.816650,178.719177 106.816650,166.138641 106.816650,153.314728 
	C93.712715,153.314728 81.403381,153.174255 69.100136,153.386429 
	C64.421288,153.467133 61.727745,156.410400 61.712002,161.149124 
	C61.622341,188.134811 61.619102,215.121262 61.809250,242.105881 
	C61.818325,243.393600 63.906902,245.742203 65.081154,245.777100 
	C75.038666,246.073074 85.008751,245.946213 95.557289,245.946213 
	C95.557289,243.942993 95.556984,242.322388 95.557343,240.701797 
	C95.559555,230.706985 95.570580,220.712173 95.560799,210.717377 
	C95.555420,205.220428 97.584663,200.581024 102.902863,198.844376 
	C106.763260,197.583755 107.197426,195.429733 106.816650,191.299713 
M195.777618,207.341293 
	C195.777618,220.099594 195.777618,232.857880 195.777618,245.641495 
	C202.968979,245.641495 209.202698,245.641495 215.491852,245.641495 
	C215.491852,214.773758 215.491852,184.223663 215.491852,153.511017 
	C202.238159,153.511017 189.318192,153.511017 176.158752,153.511017 
	C176.158752,168.175125 176.158752,182.598892 176.158752,197.197739 
	C180.017990,197.538452 184.261017,196.919464 187.445984,198.471619 
	C190.678238,200.046829 192.865997,203.765259 195.777618,207.341293 
M158.174179,197.581772 
	C160.679047,197.929962 161.242081,196.666992 161.197678,194.389816 
	C161.077545,188.228714 161.156204,182.063705 161.156158,175.900253 
	C161.156082,168.471649 161.156143,161.043030 161.156143,153.567322 
	C147.617493,153.567322 134.717194,153.567322 121.602875,153.567322 
	C121.602875,168.263840 121.602875,182.656830 121.602875,197.582565 
	C133.654800,197.582565 145.440796,197.582565 158.174179,197.581772 
M181.722412,235.462891 
	C181.722443,229.299423 181.546112,223.128983 181.789200,216.975128 
	C181.933182,213.329941 180.847214,211.995041 177.019989,212.071533 
	C165.697083,212.297821 154.366669,212.137711 143.039337,212.172607 
	C141.779968,212.176498 140.521454,212.462631 139.448700,212.594910 
	C139.448700,223.926422 139.448700,234.809662 139.448700,245.637268 
	C153.667358,245.637268 167.418686,245.637268 181.721954,245.637268 
	C181.721954,242.359848 181.721954,239.402512 181.722412,235.462891 
M421.834015,208.117142 
	C421.452454,213.282455 421.070892,218.447754 420.647400,224.180893 
	C439.990753,224.180893 458.399567,224.212189 476.807129,224.074570 
	C477.601929,224.068634 479.020294,222.540192 479.066559,221.663879 
	C479.299652,217.247055 479.173645,212.811295 479.173645,207.921204 
	C459.933044,207.921204 441.350525,207.921204 421.834015,208.117142 
M110.051224,215.785385 
	C110.051224,225.707382 110.051224,235.629379 110.051224,245.678238 
	C115.077408,245.678238 119.327629,245.678238 123.886444,245.678238 
	C123.886444,234.511536 123.886444,223.632309 123.886444,212.187897 
	C119.811501,212.187897 116.016266,212.039108 112.251015,212.308929 
	C111.464127,212.365311 110.787956,213.966553 110.051224,215.785385 
M433.256256,303.684723 
	C433.134491,296.702423 431.548676,295.902191 421.322021,297.809662 
	C421.322021,307.973267 421.322021,318.174561 421.322021,328.839508 
	C423.468231,328.839508 425.283417,328.674957 427.058716,328.871216 
	C431.834015,329.399078 433.644196,327.505432 433.343353,322.620789 
	C432.975586,316.648773 433.256561,310.636810 433.256256,303.684723 
M147.526123,473.002228 
	C143.659348,473.002228 139.792572,473.002228 135.925781,473.002228 
	C135.938217,473.404388 135.950638,473.806519 135.963058,474.208679 
	C182.260895,474.208679 228.558746,474.208679 274.856567,474.208679 
	C274.856720,473.806549 274.856873,473.404388 274.857025,473.002258 
	C232.743988,473.002258 190.630951,473.002258 147.526123,473.002228 
M144.422546,333.996826 
	C147.228317,333.996826 150.034088,333.996826 152.839859,333.996826 
	C152.831787,333.773956 152.823715,333.551117 152.815643,333.328247 
	C109.624924,333.328247 66.434196,333.328247 23.243467,333.328247 
	C23.243658,333.551117 23.243849,333.773956 23.244038,333.996826 
	C63.311199,333.996826 103.378365,333.996826 144.422546,333.996826 
M275.002533,110.500000 
	C275.002533,119.616867 275.002533,128.733734 275.002533,137.801804 
	C272.859222,137.957748 271.264984,138.073746 269.670746,138.189743 
	C269.705383,138.319992 269.740021,138.450256 269.774658,138.580521 
	C271.809052,138.580521 273.843445,138.580521 275.728760,138.580521 
	C275.728760,97.649582 275.728760,57.154545 275.728760,16.659506 
	C275.486694,16.660315 275.244598,16.661121 275.002533,16.661928 
	C275.002533,47.607952 275.002533,78.553978 275.002533,110.500000 
M8.975559,421.500000 
	C8.975559,396.954193 8.975559,372.408386 8.975559,347.862549 
	C8.762112,347.864044 8.548663,347.865540 8.335216,347.867035 
	C8.335216,383.531555 8.335216,419.196075 8.335216,454.860596 
	C8.548641,454.860992 8.762068,454.861420 8.975493,454.861816 
	C8.975493,444.074524 8.975493,433.287262 8.975559,421.500000 
M165.891785,260.015533 
	C164.617920,260.082031 163.344055,260.148560 162.070175,260.215088 
	C162.082077,260.379639 162.093964,260.544189 162.105865,260.708740 
	C192.739441,260.708740 223.373032,260.708740 254.006607,260.708740 
	C254.006851,260.477692 254.007080,260.246674 254.007324,260.015625 
	C224.939133,260.015625 195.870956,260.015625 165.891785,260.015533 
M46.998177,165.670654 
	C46.998177,192.415665 46.998177,219.160690 46.998177,245.905701 
	C47.218914,245.904236 47.439648,245.902756 47.660385,245.901291 
	C47.660385,217.043182 47.660385,188.185089 47.660385,159.326981 
	C47.439648,159.326202 47.218906,159.325424 46.998169,159.324661 
	C46.998169,161.128677 46.998169,162.932693 46.998177,165.670654 
M447.004456,412.500000 
	C447.004456,427.962372 447.004456,443.424774 447.004456,458.887146 
	C447.232849,458.884003 447.461243,458.880829 447.689636,458.877686 
	C447.689636,430.638336 447.689636,402.398956 447.689636,374.159607 
	C447.461243,374.158997 447.232880,374.158386 447.004486,374.157776 
	C447.004486,386.605164 447.004486,399.052582 447.004456,412.500000 
M417.416992,15.001600 
	C393.037537,15.001600 368.658081,15.001600 344.278656,15.001600 
	C344.281281,15.218831 344.283905,15.436061 344.286530,15.653292 
	C371.458710,15.653292 398.630890,15.653292 425.803070,15.653292 
	C425.803162,15.436062 425.803253,15.218833 425.803345,15.001603 
	C423.329437,15.001603 420.855499,15.001603 417.416992,15.001600 
M141.493820,15.079498 
	C141.462296,15.342902 141.430771,15.606305 141.399246,15.869709 
	C141.727310,15.908667 142.055389,15.981876 142.383438,15.981706 
	C168.688934,15.968042 194.994431,15.949971 221.299896,15.911332 
	C221.569473,15.910937 221.838654,15.633878 222.969818,15.012788 
	C195.505447,15.012788 168.904251,15.012788 141.493820,15.079498 
M256.986267,296.500000 
	C256.986267,285.161469 256.986267,273.822937 256.986267,262.484406 
	C256.733826,262.493988 256.481384,262.503601 256.228943,262.513214 
	C256.228943,285.283173 256.228943,308.053162 256.228943,330.823120 
	C256.481384,330.821381 256.733826,330.819611 256.986267,330.817871 
	C256.986267,319.711914 256.986267,308.605957 256.986267,296.500000 
M209.500000,333.003174 
	C201.747345,333.003174 193.994705,333.003174 186.242050,333.003174 
	C186.249222,333.243683 186.256393,333.484161 186.263565,333.724670 
	C208.452835,333.724670 230.642120,333.724670 252.831390,333.724670 
	C252.832306,333.484161 252.833206,333.243683 252.834122,333.003174 
	C238.722748,333.003174 224.611374,333.003174 209.500000,333.003174 
M441.500305,237.988556 
	C435.091248,237.988556 428.682220,237.988556 422.273163,237.988556 
	C422.282867,238.211044 422.292542,238.433533 422.302246,238.656021 
	C442.508728,238.656021 462.715210,238.656021 482.921661,238.656021 
	C482.920624,238.433533 482.919556,238.211029 482.918488,237.988541 
	C469.445709,237.988541 455.972961,237.988541 441.500305,237.988556 
M421.001373,260.500153 
	C421.001373,254.130249 421.001373,247.760345 421.001373,241.390442 
	C420.763184,241.400330 420.524994,241.410233 420.286804,241.420120 
	C420.286804,254.542252 420.286804,267.664368 420.286804,280.786499 
	C420.524994,280.787720 420.763214,280.788940 421.001404,280.790192 
	C421.001404,274.360077 421.001404,267.929993 421.001373,260.500153 
M131.500092,65.009773 
	C124.935822,65.009773 118.371544,65.009773 111.807274,65.009773 
	C111.815552,65.254280 111.823830,65.498795 111.832108,65.743301 
	C125.321968,65.743301 138.811829,65.743301 152.301697,65.743301 
	C152.304016,65.498795 152.306335,65.254295 152.308655,65.009789 
	C145.705719,65.009789 139.102768,65.009789 131.500092,65.009773 
M236.491333,65.990227 
	C241.102249,65.990227 245.713150,65.990227 250.324066,65.990227 
	C250.321442,65.759499 250.318817,65.528778 250.316193,65.298050 
	C236.785675,65.298050 223.255157,65.298050 209.724640,65.298050 
	C209.723328,65.528770 209.722015,65.759491 209.720688,65.990211 
	C218.311890,65.990211 226.903076,65.990211 236.491333,65.990227 
M418.682068,65.990273 
	C430.227783,65.990273 441.773529,65.990273 453.319244,65.990273 
	C453.315826,65.773247 453.312378,65.556229 453.308929,65.339203 
	C439.819946,65.339203 426.330963,65.339203 412.841949,65.339203 
	C412.838409,65.556282 412.834839,65.773369 412.831268,65.990448 
	C414.468353,65.990448 416.105469,65.990448 418.682068,65.990273 
M331.501923,65.990227 
	C339.430359,65.990227 347.358826,65.990227 355.287262,65.990227 
	C355.284607,65.755302 355.281952,65.520386 355.279297,65.285461 
	C341.752045,65.285461 328.224792,65.285461 314.697540,65.285461 
	C314.694275,65.520378 314.691010,65.755295 314.687744,65.990211 
	C319.959595,65.990211 325.231415,65.990211 331.501923,65.990227 
M406.540527,475.010712 
	C414.861481,475.010712 423.182465,475.010712 431.503418,475.010712 
	C431.496674,474.768768 431.489960,474.526855 431.483215,474.284912 
	C419.889374,474.284912 408.295532,474.284912 396.701691,474.284912 
	C396.700684,474.526855 396.699646,474.768768 396.698608,475.010712 
	C399.651794,475.010712 402.605011,475.010712 406.540527,475.010712 
M242.886261,15.001620 
	C241.630569,15.071352 240.374878,15.141085 239.119186,15.210816 
	C239.133102,15.378021 239.147003,15.545225 239.160919,15.712430 
	C250.494675,15.712430 261.828430,15.712430 273.162170,15.712430 
	C273.162750,15.475489 273.163330,15.238546 273.163910,15.001605 
	C263.375000,15.001605 253.586090,15.001605 242.886261,15.001620 
M134.486893,317.997864 
	C128.210052,317.997864 121.933205,317.997864 115.656364,317.997864 
	C115.663681,318.229004 115.670998,318.460144 115.678314,318.691284 
	C126.217918,318.691284 136.757523,318.691284 147.297119,318.691284 
	C147.299393,318.460144 147.301682,318.229004 147.303955,317.997864 
	C143.362473,317.997864 139.421005,317.997864 134.486893,317.997864 
M447.995575,321.336578 
	C447.995575,313.910767 447.995575,306.484955 447.995575,299.059143 
	C447.756683,299.060455 447.517822,299.061768 447.278931,299.063049 
	C447.278931,308.698730 447.278931,318.334412 447.278931,327.970093 
	C447.517853,327.973694 447.756775,327.977264 447.995697,327.980835 
	C447.995697,326.078644 447.995697,324.176483 447.995575,321.336578 
M66.396553,138.493408 
	C76.055458,138.493408 85.714371,138.493408 95.373276,138.493408 
	C95.375923,138.332962 95.378578,138.172531 95.381233,138.012085 
	C85.963692,138.012085 76.546158,138.012085 66.396553,138.493408 
M296.257507,475.010742 
	C297.956940,475.010742 299.656372,475.010742 301.355774,475.010742 
	C301.350861,474.743103 301.345917,474.475464 301.340973,474.207825 
	C293.417847,474.207825 285.494720,474.207825 277.571594,474.207825 
	C277.570618,474.475464 277.569672,474.743073 277.568695,475.010712 
	C283.483612,475.010712 289.398529,475.010712 296.257507,475.010742 
z"/>
<path fill="#CCBEB9" opacity="1.000000" stroke="none" 
	d="
M404.947815,459.194641 
	C397.306763,459.315887 389.665741,459.540985 382.024658,459.542755 
	C274.510406,459.567474 166.996155,459.562012 59.481895,459.560638 
	C58.650425,459.560638 57.818958,459.515900 56.481773,458.995026 
	C55.640156,456.388977 55.014565,454.280457 55.011551,452.170990 
	C54.961926,417.450897 54.990715,382.730713 55.001900,348.010529 
	C59.977539,348.010529 64.953178,348.010529 70.642998,348.010529 
	C70.642998,352.685638 70.600647,357.280701 70.650848,361.874756 
	C70.808250,376.280457 79.690041,385.340271 94.019997,385.376465 
	C127.153679,385.460144 160.287827,385.448914 193.421570,385.377594 
	C207.711365,385.346802 216.829681,376.154114 216.916870,361.976196 
	C216.944427,357.496246 216.921173,353.015930 216.921173,347.819244 
	C222.524109,347.819244 227.937805,347.819641 233.351517,347.819183 
	C239.845093,347.818604 246.339172,347.868378 252.832138,347.804932 
	C264.065918,347.695221 271.313202,340.591675 271.359772,329.365295 
	C271.453644,306.742462 271.387726,284.118927 271.387726,260.935944 
	C273.281464,260.852173 275.025360,260.708923 276.769318,260.707825 
	C300.412598,260.692841 324.055969,260.665222 347.699097,260.725311 
	C352.306366,260.737061 355.923859,259.543457 357.848755,254.198883 
	C364.680939,253.500381 370.962860,253.235992 377.244751,252.971619 
	C379.034668,259.286621 380.790955,260.651215 387.310608,260.692688 
	C392.897186,260.728210 398.484039,260.720245 404.635559,261.062256 
	C405.388092,261.685059 405.646759,261.885864 405.976318,261.995361 
	C406.047607,280.477142 406.152924,298.958893 406.181519,317.440735 
	C406.217377,340.592499 406.236908,363.744476 406.153137,386.895966 
	C406.135101,391.879822 407.828857,395.293854 413.390747,396.931976 
	C413.826080,403.616241 413.866241,409.738190 413.906433,415.860168 
	C407.383850,417.922699 406.212433,419.460083 406.195099,426.151276 
	C406.168365,436.464264 406.170288,446.777344 405.833679,457.692200 
	C405.320831,458.594238 405.134308,458.894440 404.947815,459.194641 
M389.554382,444.374390 
	C393.920471,442.033630 396.165619,438.316223 396.181976,433.432953 
	C396.246185,414.290649 396.318695,395.147095 396.158325,376.005920 
	C396.098206,368.828156 391.507965,364.029633 384.322296,363.702423 
	C376.350128,363.339417 368.340057,363.358795 360.363953,363.665833 
	C353.335052,363.936432 348.549316,368.384369 348.450745,375.336884 
	C348.172424,394.972534 348.212311,414.616730 348.460510,434.253326 
	C348.536285,440.250275 352.440521,445.061615 358.079346,445.284729 
	C368.317169,445.689789 378.598755,444.987305 389.554382,444.374390 
M331.500122,292.702942 
	C342.303253,292.702118 353.107483,292.793457 363.909027,292.662170 
	C369.425842,292.595154 372.492859,289.591644 372.323822,284.960938 
	C372.162628,280.545624 369.182068,277.972076 363.820557,277.954651 
	C346.868164,277.899536 329.915344,277.898773 312.962952,277.955872 
	C307.690369,277.973633 304.653625,280.651062 304.527740,285.051575 
	C304.397491,289.602661 307.554169,292.546478 313.049774,292.671448 
	C318.863831,292.803680 324.683228,292.702240 331.500122,292.702942 
z"/>
<path fill="#DED0CB" opacity="1.000000" stroke="none" 
	d="
M377.431244,252.627380 
	C370.962860,253.235992 364.680939,253.500381 358.037109,253.862152 
	C356.095947,247.238358 354.480682,245.960037 347.349365,245.958221 
	C310.481812,245.948776 273.614227,245.955841 236.746674,245.947479 
	C234.923553,245.947067 233.100464,245.856079 231.216995,245.306854 
	C230.995102,244.512787 230.833572,244.219086 230.672043,243.925400 
	C230.555161,238.277283 230.343445,232.629257 230.337952,226.981033 
	C230.314941,203.321609 230.353745,179.662125 230.806717,155.374680 
	C231.458481,154.351562 231.673447,153.956421 231.888412,153.561295 
	C233.539948,153.465576 235.191467,153.286667 236.843033,153.286209 
	C289.277313,153.271500 341.711578,153.272629 394.145874,153.275360 
	C404.138855,153.275879 406.194946,155.308655 406.193451,165.184433 
	C406.189575,191.151794 406.178650,217.119171 405.918396,243.633392 
	C405.601471,244.276169 405.459839,244.418808 405.484924,244.460022 
	C405.600525,244.650131 405.762573,244.811996 405.907959,244.983994 
	C403.134308,245.307236 400.367676,245.795029 397.585297,245.913574 
	C393.798004,246.074966 389.996674,246.033127 386.205078,245.934509 
	C381.635284,245.815674 378.579803,247.595337 377.431244,252.627380 
M268.447388,214.015579 
	C275.124237,217.959549 280.451538,215.273193 280.709839,207.638168 
	C280.917572,201.496658 280.880798,195.338654 280.705688,189.195007 
	C280.567566,184.349838 277.628815,181.289215 273.530273,181.212189 
	C269.238281,181.131531 266.196777,184.344299 266.090485,189.428848 
	C265.962006,195.574768 265.918488,201.730606 266.143738,207.870926 
	C266.212463,209.743652 267.289612,211.579376 268.447388,214.015579 
M289.157806,198.501343 
	C289.164856,201.825745 289.009033,205.160400 289.218048,208.472061 
	C289.512360,213.135834 292.694397,216.116318 296.862579,215.961212 
	C300.830536,215.813583 303.790100,212.845963 303.897644,208.430038 
	C304.055481,201.951096 304.043549,195.463684 303.916046,188.983597 
	C303.824463,184.330551 300.703735,181.190308 296.573212,181.213547 
	C292.484039,181.236557 289.425751,184.390823 289.189026,189.045456 
	C289.045654,191.864075 289.159515,194.695770 289.157806,198.501343 
M312.456787,190.054626 
	C312.459198,196.031891 312.355530,202.011673 312.497345,207.985626 
	C312.612549,212.839142 315.453003,215.867737 319.595551,215.964767 
	C323.934845,216.066422 326.955719,212.897430 327.049957,207.843063 
	C327.161346,201.867844 327.124268,195.888489 327.063782,189.911804 
	C327.010803,184.678192 324.377930,181.452850 320.137482,181.231110 
	C315.925659,181.010880 313.302002,183.730072 312.456787,190.054626 
M373.419678,202.438049 
	C373.364441,197.467255 373.539948,192.479797 373.182434,187.530838 
	C372.886261,183.430405 370.013214,181.324982 366.097870,181.314743 
	C362.417389,181.305115 359.334656,183.318573 359.134369,187.097229 
	C358.731628,194.695862 358.701141,202.347366 359.125427,209.943085 
	C359.345764,213.887527 362.411255,216.034286 366.415710,215.905182 
	C370.184021,215.783722 372.593872,213.617798 373.168793,209.857590 
	C373.491821,207.745071 373.351379,205.561691 373.419678,202.438049 
M350.318268,206.260834 
	C350.314972,200.619476 350.412811,194.975723 350.278198,189.337494 
	C350.158295,184.315613 347.067810,181.116318 342.776520,181.235504 
	C338.635132,181.350525 335.857208,184.395630 335.763611,189.247284 
	C335.651642,195.052444 335.699860,200.861572 335.741943,206.668533 
	C335.784454,212.531586 338.091278,215.658051 342.478271,215.948700 
	C347.077087,216.253403 349.756714,213.257950 350.318268,206.260834 
z"/>
<path fill="#DED0CB" opacity="1.000000" stroke="none" 
	d="
M106.816681,191.766098 
	C107.197426,195.429733 106.763260,197.583755 102.902863,198.844376 
	C97.584663,200.581024 95.555420,205.220428 95.560799,210.717377 
	C95.570580,220.712173 95.559555,230.706985 95.557343,240.701797 
	C95.556984,242.322388 95.557289,243.942993 95.557289,245.946213 
	C85.008751,245.946213 75.038666,246.073074 65.081154,245.777100 
	C63.906902,245.742203 61.818325,243.393600 61.809250,242.105881 
	C61.619102,215.121262 61.622341,188.134811 61.712002,161.149124 
	C61.727745,156.410400 64.421288,153.467133 69.100136,153.386429 
	C81.403381,153.174255 93.712715,153.314728 106.816650,153.314728 
	C106.816650,166.138641 106.816650,178.719177 106.816681,191.766098 
z"/>
<path fill="#B2A5A5" opacity="1.000000" stroke="none" 
	d="
M54.541290,347.915955 
	C54.990715,382.730713 54.961926,417.450897 55.011551,452.170990 
	C55.014565,454.280457 55.640156,456.388977 56.037888,458.866547 
	C47.470078,459.340485 38.835358,459.665558 30.212757,459.466278 
	C25.268478,459.352020 22.690420,456.424164 22.678205,451.342987 
	C22.598658,418.250275 22.651522,385.157288 22.595762,352.064484 
	C22.590254,348.794922 24.003437,347.713409 27.141541,347.757111 
	C36.119816,347.882080 45.100777,347.813690 54.541290,347.915955 
z"/>
<path fill="#01BFF9" opacity="1.000000" stroke="none" 
	d="
M430.014587,80.168198 
	C436.470398,80.168198 442.926239,80.168198 449.758545,80.168198 
	C453.632294,117.763069 457.480530,155.110535 461.364929,192.808716 
	C447.732880,192.808716 434.656860,192.808716 420.926758,192.808716 
	C420.926758,181.482834 420.926758,170.210052 421.247070,158.180206 
	C423.041870,144.474457 424.561279,131.530670 425.978058,118.575653 
	C427.377563,105.779076 428.673340,92.971146 430.014587,80.168198 
z"/>
<path fill="#DDCFCA" opacity="1.000000" stroke="none" 
	d="
M195.644409,206.943176 
	C192.865997,203.765259 190.678238,200.046829 187.445984,198.471619 
	C184.261017,196.919464 180.017990,197.538452 176.158752,197.197739 
	C176.158752,182.598892 176.158752,168.175125 176.158752,153.511017 
	C189.318192,153.511017 202.238159,153.511017 215.491852,153.511017 
	C215.491852,184.223663 215.491852,214.773758 215.491852,245.641495 
	C209.202698,245.641495 202.968979,245.641495 195.777618,245.641495 
	C195.777618,232.857880 195.777618,220.099594 195.644409,206.943176 
z"/>
<path fill="#766E6E" opacity="1.000000" stroke="none" 
	d="
M117.012321,348.030579 
	C128.003845,347.971558 138.995529,347.853638 149.986786,347.885498 
	C153.820984,347.896606 156.788589,346.805420 158.587036,343.162903 
	C159.020370,342.285278 160.074326,341.182831 160.912003,341.121063 
	C166.993515,340.672546 173.092728,340.464172 179.298218,340.174591 
	C182.845932,353.234497 194.104141,345.414581 201.989502,348.659210 
	C201.989502,353.749207 202.463715,359.238831 201.852859,364.604889 
	C201.270386,369.721832 197.057129,370.833801 192.502686,370.824677 
	C179.508896,370.798645 166.514969,370.836517 153.521194,370.809631 
	C142.029404,370.785828 130.537720,370.708832 118.556152,370.151825 
	C117.714981,362.442413 117.363647,355.236481 117.012321,348.030579 
z"/>
<path fill="#DBCEC9" opacity="1.000000" stroke="none" 
	d="
M157.700500,197.582169 
	C145.440796,197.582565 133.654800,197.582565 121.602875,197.582565 
	C121.602875,182.656830 121.602875,168.263840 121.602875,153.567322 
	C134.717194,153.567322 147.617493,153.567322 161.156143,153.567322 
	C161.156143,161.043030 161.156082,168.471649 161.156158,175.900253 
	C161.156204,182.063705 161.077545,188.228714 161.197678,194.389816 
	C161.242081,196.666992 160.679047,197.929962 157.700500,197.582169 
z"/>
<path fill="#FC5593" opacity="1.000000" stroke="none" 
	d="
M331.058594,80.177452 
	C337.834869,80.177452 344.611176,80.177452 351.832489,80.177452 
	C353.818604,99.710403 355.778625,118.987061 357.793976,138.807693 
	C347.156250,138.807693 337.049652,138.807693 326.478577,138.292877 
	C326.406830,132.184937 326.705597,126.583290 327.210785,121.000320 
	C328.442474,107.388092 329.769806,93.784515 331.058594,80.177452 
z"/>
<path fill="#FDD302" opacity="1.000000" stroke="none" 
	d="
M129.012695,80.164574 
	C135.468018,80.164574 141.923325,80.164574 148.835190,80.164574 
	C150.824875,99.703484 152.789749,118.998741 154.806931,138.807724 
	C144.201065,138.807724 134.073990,138.807724 123.482475,138.294235 
	C124.093941,126.102333 125.088356,114.415634 126.274925,102.748474 
	C127.042030,95.205711 128.090378,87.691551 129.012695,80.164574 
z"/>
<path fill="#67C944" opacity="1.000000" stroke="none" 
	d="
M227.011169,80.156036 
	C233.452530,80.156036 239.893875,80.156036 246.809494,80.156036 
	C248.828415,99.594513 250.826401,118.831337 252.900314,138.799240 
	C242.392776,138.799240 232.180435,138.799240 221.497864,138.302521 
	C223.022125,118.589203 225.016647,99.372620 227.011169,80.156036 
z"/>
<path fill="#736B6B" opacity="1.000000" stroke="none" 
	d="
M181.722183,235.954025 
	C181.721954,239.402512 181.721954,242.359848 181.721954,245.637268 
	C167.418686,245.637268 153.667358,245.637268 139.448700,245.637268 
	C139.448700,234.809662 139.448700,223.926422 139.448700,212.594910 
	C140.521454,212.462631 141.779968,212.176498 143.039337,212.172607 
	C154.366669,212.137711 165.697083,212.297821 177.019989,212.071533 
	C180.847214,211.995041 181.933182,213.329941 181.789200,216.975128 
	C181.546112,223.128983 181.722443,229.299423 181.722183,235.954025 
z"/>
<path fill="#746D6D" opacity="1.000000" stroke="none" 
	d="
M414.245605,416.002136 
	C413.866241,409.738190 413.826080,403.616241 413.733704,397.074707 
	C419.048859,395.353394 421.303070,391.940643 421.020630,386.450500 
	C420.790741,381.981842 420.973907,377.491913 420.973907,372.214752 
	C424.290314,372.214752 427.519623,371.648010 430.352692,372.461395 
	C431.705688,372.849823 433.109955,375.851471 433.125610,377.681183 
	C433.314911,399.791443 433.248932,421.903931 433.249359,444.015808 
	C433.249420,447.174652 432.977478,450.362518 433.311310,453.485657 
	C433.841705,458.447540 431.659668,460.170410 426.994293,459.730316 
	C425.219116,459.562866 423.414948,459.703094 420.974213,459.703094 
	C420.974213,447.960449 420.882446,436.716278 421.017426,425.474823 
	C421.074921,420.686615 419.337341,417.458069 414.245605,416.002136 
z"/>
<path fill="#756D6D" opacity="1.000000" stroke="none" 
	d="
M422.300995,208.019165 
	C441.350525,207.921204 459.933044,207.921204 479.173645,207.921204 
	C479.173645,212.811295 479.299652,217.247055 479.066559,221.663879 
	C479.020294,222.540192 477.601929,224.068634 476.807129,224.074570 
	C458.399567,224.212189 439.990753,224.180893 420.647400,224.180893 
	C421.070892,218.447754 421.452454,213.282455 422.300995,208.019165 
z"/>
<path fill="#08A7ED" opacity="1.000000" stroke="none" 
	d="
M429.556274,80.085434 
	C428.673340,92.971146 427.377563,105.779076 425.978058,118.575653 
	C424.561279,131.530670 423.041870,144.474457 421.295654,157.714020 
	C418.178955,153.266281 415.296783,148.549316 412.518036,143.772202 
	C411.906555,142.720978 411.205231,141.410538 411.316589,140.296555 
	C413.277740,120.676445 415.357300,101.068161 417.427277,81.459015 
	C417.459503,81.153870 417.694031,80.870079 418.107758,80.002663 
	C421.581207,80.002663 425.339569,80.002663 429.556274,80.085434 
z"/>
<path fill="#F2C000" opacity="1.000000" stroke="none" 
	d="
M128.554932,80.078812 
	C128.090378,87.691551 127.042030,95.205711 126.274925,102.748474 
	C125.088356,114.415634 124.093941,126.102333 123.023399,138.206268 
	C119.088531,138.631775 115.148315,138.631775 110.569618,138.631775 
	C112.556725,119.020714 114.506516,99.778008 116.511238,79.993057 
	C120.558212,79.993057 124.327690,79.993057 128.554932,80.078812 
z"/>
<path fill="#4EBC24" opacity="1.000000" stroke="none" 
	d="
M226.554840,80.082375 
	C225.016647,99.372620 223.022125,118.589203 221.040009,138.218719 
	C217.253311,138.631668 213.454224,138.631668 208.651199,138.631668 
	C210.649155,119.046776 212.624390,99.684685 214.631653,80.008713 
	C218.812973,80.008713 222.455750,80.008713 226.554840,80.082375 
z"/>
<path fill="#F4357D" opacity="1.000000" stroke="none" 
	d="
M330.599121,80.089325 
	C329.769806,93.784515 328.442474,107.388092 327.210785,121.000320 
	C326.705597,126.583290 326.406830,132.184937 326.018707,138.208054 
	C322.080414,138.638031 318.137543,138.638031 313.538574,138.638031 
	C315.524414,119.003433 317.472748,99.739449 319.469055,80.001198 
	C323.246948,80.001198 326.693298,80.001198 330.599121,80.089325 
z"/>
<path fill="#585252" opacity="1.000000" stroke="none" 
	d="
M116.545517,347.973206 
	C117.363647,355.236481 117.714981,362.442413 118.116714,370.023102 
	C109.571793,370.529633 100.968208,370.935791 92.384605,370.677612 
	C88.077248,370.548035 85.467003,367.453430 85.228043,363.108917 
	C84.965889,358.342712 85.168335,353.550903 85.168335,347.915802 
	C95.711426,347.915802 105.895073,347.915802 116.545517,347.973206 
z"/>
<path fill="#776F6F" opacity="1.000000" stroke="none" 
	d="
M77.129295,474.407990 
	C91.200317,474.407990 105.271332,474.407990 119.648788,474.407990 
	C119.648788,478.289642 119.648788,481.857910 119.648788,486.161591 
	C105.683189,486.161591 91.800545,486.161591 77.450394,485.636810 
	C77.031685,481.544006 77.080490,477.976013 77.129295,474.407990 
z"/>
<path fill="#776F6F" opacity="1.000000" stroke="none" 
	d="
M339.121796,474.383606 
	C351.731567,474.306458 364.341492,474.249207 376.950958,474.137299 
	C379.890320,474.111237 381.753815,474.937531 381.490326,478.375824 
	C381.314697,480.667816 381.457001,482.984192 381.457001,486.176300 
	C367.606964,486.176300 353.756592,486.176300 339.433197,485.657959 
	C339.014069,481.554260 339.067932,477.968933 339.121796,474.383606 
z"/>
<path fill="#736B6B" opacity="1.000000" stroke="none" 
	d="
M110.056000,215.320633 
	C110.787956,213.966553 111.464127,212.365311 112.251015,212.308929 
	C116.016266,212.039108 119.811501,212.187897 123.886444,212.187897 
	C123.886444,223.632309 123.886444,234.511536 123.886444,245.678238 
	C119.327629,245.678238 115.077408,245.678238 110.051224,245.678238 
	C110.051224,235.629379 110.051224,225.707382 110.056000,215.320633 
z"/>
<path fill="#736B6B" opacity="1.000000" stroke="none" 
	d="
M433.256622,304.163422 
	C433.256561,310.636810 432.975586,316.648773 433.343353,322.620789 
	C433.644196,327.505432 431.834015,329.399078 427.058716,328.871216 
	C425.283417,328.674957 423.468231,328.839508 421.322021,328.839508 
	C421.322021,318.174561 421.322021,307.973267 421.322021,297.809662 
	C431.548676,295.902191 433.134491,296.702423 433.256622,304.163422 
z"/>
<path fill="#585252" opacity="1.000000" stroke="none" 
	d="
M338.654175,474.274414 
	C339.067932,477.968933 339.014069,481.554260 338.965271,485.602173 
	C333.006470,486.098389 327.037903,486.003204 321.080536,486.217773 
	C317.909882,486.332001 316.404999,485.352386 316.775726,482.018311 
	C316.939545,480.545105 316.889099,479.032745 316.786224,477.548553 
	C316.607544,474.970520 317.756195,474.008545 320.292999,474.059082 
	C326.255890,474.177856 332.221832,474.139801 338.654175,474.274414 
z"/>
<path fill="#585252" opacity="1.000000" stroke="none" 
	d="
M76.661713,474.294983 
	C77.080490,477.976013 77.031685,481.544006 76.984474,485.571716 
	C69.887802,486.031433 62.789539,486.031433 55.952995,486.031433 
	C55.531013,485.303986 55.250011,485.035614 55.224850,484.745026 
	C54.301376,474.080719 54.304638,474.071564 64.732086,474.085083 
	C68.552803,474.090027 72.373459,474.148132 76.661713,474.294983 
z"/>
<path fill="#1F1F1F" opacity="1.000000" stroke="none" 
	d="
M148.022003,473.002258 
	C190.630951,473.002258 232.743988,473.002258 274.857025,473.002258 
	C274.856873,473.404388 274.856720,473.806549 274.856567,474.208679 
	C228.558746,474.208679 182.260895,474.208679 135.963058,474.208679 
	C135.950638,473.806519 135.938217,473.404388 135.925781,473.002228 
	C139.792572,473.002228 143.659348,473.002228 148.022003,473.002258 
z"/>
<path fill="#171717" opacity="1.000000" stroke="none" 
	d="
M143.934036,333.996826 
	C103.378365,333.996826 63.311199,333.996826 23.244038,333.996826 
	C23.243849,333.773956 23.243658,333.551117 23.243467,333.328247 
	C66.434196,333.328247 109.624924,333.328247 152.815643,333.328247 
	C152.823715,333.551117 152.831787,333.773956 152.839859,333.996826 
	C150.034088,333.996826 147.228317,333.996826 143.934036,333.996826 
z"/>
<path fill="#B9B9B9" opacity="1.000000" stroke="none" 
	d="
M275.002533,110.000000 
	C275.002533,78.553978 275.002533,47.607952 275.002533,16.661928 
	C275.244598,16.661121 275.486694,16.660315 275.728760,16.659506 
	C275.728760,57.154545 275.728760,97.649582 275.728760,138.580521 
	C273.843445,138.580521 271.809052,138.580521 269.774658,138.580521 
	C269.740021,138.450256 269.705383,138.319992 269.670746,138.189743 
	C271.264984,138.073746 272.859222,137.957748 275.002533,137.801804 
	C275.002533,128.733734 275.002533,119.616867 275.002533,110.000000 
z"/>
<path fill="#7C7C7C" opacity="1.000000" stroke="none" 
	d="
M290.945221,15.987161 
	C290.945221,56.729851 290.945221,97.472534 290.945221,138.215225 
	C290.715790,138.220398 290.486389,138.225571 290.256958,138.230743 
	C290.171936,137.097748 290.012909,135.964767 290.012543,134.831741 
	C290.000275,96.195671 290.001617,57.559601 290.012726,18.923531 
	C290.012970,18.097828 290.149780,17.272165 290.614990,16.221037 
	C291.007111,15.995589 290.945221,15.987161 290.945221,15.987161 
z"/>
<path fill="#2D2D2D" opacity="1.000000" stroke="none" 
	d="
M8.975527,422.000000 
	C8.975493,433.287262 8.975493,444.074524 8.975493,454.861816 
	C8.762068,454.861420 8.548641,454.860992 8.335216,454.860596 
	C8.335216,419.196075 8.335216,383.531555 8.335216,347.867035 
	C8.548663,347.865540 8.762112,347.864044 8.975559,347.862549 
	C8.975559,372.408386 8.975559,396.954193 8.975527,422.000000 
z"/>
<path fill="#616161" opacity="1.000000" stroke="none" 
	d="
M166.347275,260.015564 
	C195.870956,260.015625 224.939133,260.015625 254.007324,260.015625 
	C254.007080,260.246674 254.006851,260.477692 254.006607,260.708740 
	C223.373032,260.708740 192.739441,260.708740 162.105865,260.708740 
	C162.093964,260.544189 162.082077,260.379639 162.070175,260.215088 
	C163.344055,260.148560 164.617920,260.082031 166.347275,260.015564 
z"/>
<path fill="#0A0A09" opacity="1.000000" stroke="none" 
	d="
M46.998173,165.203674 
	C46.998169,162.932693 46.998169,161.128677 46.998169,159.324661 
	C47.218906,159.325424 47.439648,159.326202 47.660385,159.326981 
	C47.660385,188.185089 47.660385,217.043182 47.660385,245.901291 
	C47.439648,245.902756 47.218914,245.904236 46.998177,245.905701 
	C46.998177,219.160690 46.998177,192.415665 46.998173,165.203674 
z"/>
<path fill="#2D2D2D" opacity="1.000000" stroke="none" 
	d="
M447.004456,412.000000 
	C447.004486,399.052582 447.004486,386.605164 447.004486,374.157776 
	C447.232880,374.158386 447.461243,374.158997 447.689636,374.159607 
	C447.689636,402.398956 447.689636,430.638336 447.689636,458.877686 
	C447.461243,458.880829 447.232849,458.884003 447.004456,458.887146 
	C447.004456,443.424774 447.004456,427.962372 447.004456,412.000000 
z"/>
<path fill="#515151" opacity="1.000000" stroke="none" 
	d="
M417.899292,15.001602 
	C420.855499,15.001603 423.329437,15.001603 425.803345,15.001603 
	C425.803253,15.218833 425.803162,15.436062 425.803070,15.653292 
	C398.630890,15.653292 371.458710,15.653292 344.286530,15.653292 
	C344.283905,15.436061 344.281281,15.218831 344.278656,15.001600 
	C368.658081,15.001600 393.037537,15.001600 417.899292,15.001602 
z"/>
<path fill="#515151" opacity="1.000000" stroke="none" 
	d="
M141.898438,15.046143 
	C168.904251,15.012788 195.505447,15.012788 222.969818,15.012788 
	C221.838654,15.633878 221.569473,15.910937 221.299896,15.911332 
	C194.994431,15.949971 168.688934,15.968042 142.383438,15.981706 
	C142.055389,15.981876 141.727310,15.908667 141.399231,15.869709 
	C141.430771,15.606305 141.462296,15.342902 141.898438,15.046143 
z"/>
<path fill="#DBCEC9" opacity="1.000000" stroke="none" 
	d="
M256.986267,297.000000 
	C256.986267,308.605957 256.986267,319.711914 256.986267,330.817871 
	C256.733826,330.819611 256.481384,330.821381 256.228943,330.823120 
	C256.228943,308.053162 256.228943,285.283173 256.228943,262.513214 
	C256.481384,262.503601 256.733826,262.493988 256.986267,262.484406 
	C256.986267,273.822937 256.986267,285.161469 256.986267,297.000000 
z"/>
<path fill="#171717" opacity="1.000000" stroke="none" 
	d="
M210.000000,333.003174 
	C224.611374,333.003174 238.722748,333.003174 252.834122,333.003174 
	C252.833206,333.243683 252.832306,333.484161 252.831390,333.724670 
	C230.642120,333.724670 208.452835,333.724670 186.263565,333.724670 
	C186.256393,333.484161 186.249222,333.243683 186.242050,333.003174 
	C193.994705,333.003174 201.747345,333.003174 210.000000,333.003174 
z"/>
<path fill="#616161" opacity="1.000000" stroke="none" 
	d="
M124.038048,260.953674 
	C103.290817,260.953674 82.543587,260.953674 61.796360,260.953674 
	C61.795830,260.737671 61.795303,260.521637 61.794773,260.305634 
	C82.360054,260.305634 102.925331,260.305634 123.757111,260.657043 
	C124.023605,261.008423 124.038048,260.953674 124.038048,260.953674 
z"/>
<path fill="#2D2D2D" opacity="1.000000" stroke="none" 
	d="
M442.000244,237.988556 
	C455.972961,237.988541 469.445709,237.988541 482.918488,237.988541 
	C482.919556,238.211029 482.920624,238.433533 482.921661,238.656021 
	C462.715210,238.656021 442.508728,238.656021 422.302246,238.656021 
	C422.292542,238.433533 422.282867,238.211044 422.273163,237.988556 
	C428.682220,237.988556 435.091248,237.988556 442.000244,237.988556 
z"/>
<path fill="#515151" opacity="1.000000" stroke="none" 
	d="
M123.995461,261.007690 
	C124.295609,261.533569 124.908508,262.059052 124.910583,262.586914 
	C124.963348,276.027557 124.952179,289.468414 124.000557,302.913788 
	C124.000557,289.241882 124.000557,275.569977 124.019302,261.425873 
	C124.038048,260.953674 124.023605,261.008423 123.995461,261.007690 
z"/>
<path fill="#0A0A09" opacity="1.000000" stroke="none" 
	d="
M421.001404,261.000000 
	C421.001404,267.929993 421.001404,274.360077 421.001404,280.790192 
	C420.763214,280.788940 420.524994,280.787720 420.286804,280.786499 
	C420.286804,267.664368 420.286804,254.542252 420.286804,241.420120 
	C420.524994,241.410233 420.763184,241.400330 421.001373,241.390442 
	C421.001373,247.760345 421.001373,254.130249 421.001404,261.000000 
z"/>
<path fill="#616161" opacity="1.000000" stroke="none" 
	d="
M131.999969,65.009781 
	C139.102768,65.009789 145.705719,65.009789 152.308655,65.009789 
	C152.306335,65.254295 152.304016,65.498795 152.301697,65.743301 
	C138.811829,65.743301 125.321968,65.743301 111.832108,65.743301 
	C111.823830,65.498795 111.815552,65.254280 111.807274,65.009773 
	C118.371544,65.009773 124.935822,65.009773 131.999969,65.009781 
z"/>
<path fill="#616161" opacity="1.000000" stroke="none" 
	d="
M235.992798,65.990219 
	C226.903076,65.990211 218.311890,65.990211 209.720688,65.990211 
	C209.722015,65.759491 209.723328,65.528770 209.724640,65.298050 
	C223.255157,65.298050 236.785675,65.298050 250.316193,65.298050 
	C250.318817,65.528778 250.321442,65.759499 250.324066,65.990227 
	C245.713150,65.990227 241.102249,65.990227 235.992798,65.990219 
z"/>
<path fill="#616161" opacity="1.000000" stroke="none" 
	d="
M418.212311,65.990356 
	C416.105469,65.990448 414.468353,65.990448 412.831268,65.990448 
	C412.834839,65.773369 412.838409,65.556282 412.841949,65.339203 
	C426.330963,65.339203 439.819946,65.339203 453.308929,65.339203 
	C453.312378,65.556229 453.315826,65.773247 453.319244,65.990273 
	C441.773529,65.990273 430.227783,65.990273 418.212311,65.990356 
z"/>
<path fill="#616161" opacity="1.000000" stroke="none" 
	d="
M331.002563,65.990219 
	C325.231415,65.990211 319.959595,65.990211 314.687744,65.990211 
	C314.691010,65.755295 314.694275,65.520378 314.697540,65.285461 
	C328.224792,65.285461 341.752045,65.285461 355.279297,65.285461 
	C355.281952,65.520386 355.284607,65.755302 355.287262,65.990227 
	C347.358826,65.990227 339.430359,65.990227 331.002563,65.990219 
z"/>
<path fill="#515151" opacity="1.000000" stroke="none" 
	d="
M290.997162,16.025143 
	C291.351410,15.753012 291.714600,15.189115 292.079987,15.187670 
	C303.772736,15.141451 315.465698,15.149646 327.158051,15.995682 
	C315.402771,15.995682 303.647522,15.995682 291.418732,15.991421 
	C290.945221,15.987161 291.007111,15.995589 290.997162,16.025143 
z"/>
<path fill="#B2A5A5" opacity="1.000000" stroke="none" 
	d="
M406.049377,475.010712 
	C402.605011,475.010712 399.651794,475.010712 396.698608,475.010712 
	C396.699646,474.768768 396.700684,474.526855 396.701691,474.284912 
	C408.295532,474.284912 419.889374,474.284912 431.483215,474.284912 
	C431.489960,474.526855 431.496674,474.768768 431.503418,475.010712 
	C423.182465,475.010712 414.861481,475.010712 406.049377,475.010712 
z"/>
<path fill="#515151" opacity="1.000000" stroke="none" 
	d="
M243.341721,15.001613 
	C253.586090,15.001605 263.375000,15.001605 273.163910,15.001605 
	C273.163330,15.238546 273.162750,15.475489 273.162170,15.712430 
	C261.828430,15.712430 250.494675,15.712430 239.160919,15.712430 
	C239.147003,15.545225 239.133102,15.378021 239.119186,15.210816 
	C240.374878,15.141085 241.630569,15.071352 243.341721,15.001613 
z"/>
<path fill="#B2A5A5" opacity="1.000000" stroke="none" 
	d="
M134.983215,317.997864 
	C139.421005,317.997864 143.362473,317.997864 147.303955,317.997864 
	C147.301682,318.229004 147.299393,318.460144 147.297119,318.691284 
	C136.757523,318.691284 126.217918,318.691284 115.678314,318.691284 
	C115.670998,318.460144 115.663681,318.229004 115.656364,317.997864 
	C121.933205,317.997864 128.210052,317.997864 134.983215,317.997864 
z"/>
<path fill="#2D2D2D" opacity="1.000000" stroke="none" 
	d="
M447.995636,321.805420 
	C447.995697,324.176483 447.995697,326.078644 447.995697,327.980835 
	C447.756775,327.977264 447.517853,327.973694 447.278931,327.970093 
	C447.278931,318.334412 447.278931,308.698730 447.278931,299.063049 
	C447.517822,299.061768 447.756683,299.060455 447.995575,299.059143 
	C447.995575,306.484955 447.995575,313.910767 447.995636,321.805420 
z"/>
<path fill="#B9B9B9" opacity="1.000000" stroke="none" 
	d="
M66.762589,138.252747 
	C76.546158,138.012085 85.963692,138.012085 95.381233,138.012085 
	C95.378578,138.172531 95.375923,138.332962 95.373276,138.493408 
	C85.714371,138.493408 76.055458,138.493408 66.762589,138.252747 
z"/>
<path fill="#B2A5A5" opacity="1.000000" stroke="none" 
	d="
M295.785461,475.010742 
	C289.398529,475.010712 283.483612,475.010712 277.568695,475.010712 
	C277.569672,474.743073 277.570618,474.475464 277.571594,474.207825 
	C285.494720,474.207825 293.417847,474.207825 301.340973,474.207825 
	C301.345917,474.475464 301.350861,474.743103 301.355774,475.010742 
	C299.656372,475.010742 297.956940,475.010742 295.785461,475.010742 
z"/>
<path fill="#DBCEC9" opacity="1.000000" stroke="none" 
	d="
M405.284149,459.216248 
	C405.134308,458.894440 405.320831,458.594238 405.732788,458.152039 
	C405.845612,458.419312 405.733063,458.828613 405.284149,459.216248 
z"/>
<path fill="#EDDED9" opacity="1.000000" stroke="none" 
	d="
M231.484619,153.613342 
	C231.673447,153.956421 231.458481,154.351562 230.956924,154.934525 
	C230.807175,154.636703 230.944000,154.151031 231.484619,153.613342 
z"/>
<path fill="#EDDED9" opacity="1.000000" stroke="none" 
	d="
M230.575027,244.223053 
	C230.833572,244.219086 230.995102,244.512787 230.981583,244.930084 
	C230.697021,244.876022 230.587524,244.698349 230.575027,244.223053 
z"/>
<path fill="#EDDED9" opacity="1.000000" stroke="none" 
	d="
M406.008545,244.744965 
	C405.762573,244.811996 405.600525,244.650131 405.484924,244.460022 
	C405.459839,244.418808 405.601471,244.276169 405.818604,244.093140 
	C406.016998,244.172684 406.063080,244.339310 406.008545,244.744965 
z"/>
<path fill="#DBCEC9" opacity="1.000000" stroke="none" 
	d="
M406.001892,261.681488 
	C405.646759,261.885864 405.388092,261.685059 405.093109,261.167603 
	C405.333069,261.084045 405.680298,261.225830 406.001892,261.681488 
z"/>
<path fill="#050505" opacity="1.000000" stroke="none" 
	d="
M389.208252,444.560730 
	C378.598755,444.987305 368.317169,445.689789 358.079346,445.284729 
	C352.440521,445.061615 348.536285,440.250275 348.460510,434.253326 
	C348.212311,414.616730 348.172424,394.972534 348.450745,375.336884 
	C348.549316,368.384369 353.335052,363.936432 360.363953,363.665833 
	C368.340057,363.358795 376.350128,363.339417 384.322296,363.702423 
	C391.507965,364.029633 396.098206,368.828156 396.158325,376.005920 
	C396.318695,395.147095 396.246185,414.290649 396.181976,433.432953 
	C396.165619,438.316223 393.920471,442.033630 389.208252,444.560730 
M381.675232,413.498291 
	C381.675232,401.796387 381.675232,390.094482 381.675232,378.596924 
	C374.927582,378.596924 369.039246,378.596924 363.333862,378.596924 
	C363.333862,396.334229 363.333862,413.673279 363.333862,431.006531 
	C369.528442,431.006531 375.306030,431.006531 381.675201,431.006531 
	C381.675201,425.372833 381.675201,419.935059 381.675232,413.498291 
z"/>
<path fill="#080707" opacity="1.000000" stroke="none" 
	d="
M331.000183,292.702881 
	C324.683228,292.702240 318.863831,292.803680 313.049774,292.671448 
	C307.554169,292.546478 304.397491,289.602661 304.527740,285.051575 
	C304.653625,280.651062 307.690369,277.973633 312.962952,277.955872 
	C329.915344,277.898773 346.868164,277.899536 363.820557,277.954651 
	C369.182068,277.972076 372.162628,280.545624 372.323822,284.960938 
	C372.492859,289.591644 369.425842,292.595154 363.909027,292.662170 
	C353.107483,292.793457 342.303253,292.702118 331.000183,292.702881 
z"/>
<path fill="#0A0A09" opacity="1.000000" stroke="none" 
	d="
M268.176147,213.723816 
	C267.289612,211.579376 266.212463,209.743652 266.143738,207.870926 
	C265.918488,201.730606 265.962006,195.574768 266.090485,189.428848 
	C266.196777,184.344299 269.238281,181.131531 273.530273,181.212189 
	C277.628815,181.289215 280.567566,184.349838 280.705688,189.195007 
	C280.880798,195.338654 280.917572,201.496658 280.709839,207.638168 
	C280.451538,215.273193 275.124237,217.959549 268.176147,213.723816 
z"/>
<path fill="#080707" opacity="1.000000" stroke="none" 
	d="
M289.157806,198.011475 
	C289.159515,194.695770 289.045654,191.864075 289.189026,189.045456 
	C289.425751,184.390823 292.484039,181.236557 296.573212,181.213547 
	C300.703735,181.190308 303.824463,184.330551 303.916046,188.983597 
	C304.043549,195.463684 304.055481,201.951096 303.897644,208.430038 
	C303.790100,212.845963 300.830536,215.813583 296.862579,215.961212 
	C292.694397,216.116318 289.512360,213.135834 289.218048,208.472061 
	C289.009033,205.160400 289.164856,201.825745 289.157806,198.011475 
z"/>
<path fill="#080707" opacity="1.000000" stroke="none" 
	d="
M312.459778,189.619949 
	C313.302002,183.730072 315.925659,181.010880 320.137482,181.231110 
	C324.377930,181.452850 327.010803,184.678192 327.063782,189.911804 
	C327.124268,195.888489 327.161346,201.867844 327.049957,207.843063 
	C326.955719,212.897430 323.934845,216.066422 319.595551,215.964767 
	C315.453003,215.867737 312.612549,212.839142 312.497345,207.985626 
	C312.355530,202.011673 312.459198,196.031891 312.459778,189.619949 
z"/>
<path fill="#050505" opacity="1.000000" stroke="none" 
	d="
M373.419708,202.924133 
	C373.351379,205.561691 373.491821,207.745071 373.168793,209.857590 
	C372.593872,213.617798 370.184021,215.783722 366.415710,215.905182 
	C362.411255,216.034286 359.345764,213.887527 359.125427,209.943085 
	C358.701141,202.347366 358.731628,194.695862 359.134369,187.097229 
	C359.334656,183.318573 362.417389,181.305115 366.097870,181.314743 
	C370.013214,181.324982 372.886261,183.430405 373.182434,187.530838 
	C373.539948,192.479797 373.364441,197.467255 373.419708,202.924133 
z"/>
<path fill="#050505" opacity="1.000000" stroke="none" 
	d="
M350.317566,206.723511 
	C349.756714,213.257950 347.077087,216.253403 342.478271,215.948700 
	C338.091278,215.658051 335.784454,212.531586 335.741943,206.668533 
	C335.699860,200.861572 335.651642,195.052444 335.763611,189.247284 
	C335.857208,184.395630 338.635132,181.350525 342.776520,181.235504 
	C347.067810,181.116318 350.158295,184.315613 350.278198,189.337494 
	C350.412811,194.975723 350.314972,200.619476 350.317566,206.723511 
z"/>
<path fill="#F6F6F6" opacity="1.000000" stroke="none" 
	d="
M381.675232,413.997772 
	C381.675201,419.935059 381.675201,425.372833 381.675201,431.006531 
	C375.306030,431.006531 369.528442,431.006531 363.333862,431.006531 
	C363.333862,413.673279 363.333862,396.334229 363.333862,378.596924 
	C369.039246,378.596924 374.927582,378.596924 381.675232,378.596924 
	C381.675232,390.094482 381.675232,401.796387 381.675232,413.997772 
z"/>
</svg>